%TF.GenerationSoftware,KiCad,Pcbnew,7.0.1*%
%TF.CreationDate,2023-09-22T10:39:05-04:00*%
%TF.ProjectId,PMIC_module,504d4943-5f6d-46f6-9475-6c652e6b6963,rev?*%
%TF.SameCoordinates,Original*%
%TF.FileFunction,Legend,Top*%
%TF.FilePolarity,Positive*%
%FSLAX46Y46*%
G04 Gerber Fmt 4.6, Leading zero omitted, Abs format (unit mm)*
G04 Created by KiCad (PCBNEW 7.0.1) date 2023-09-22 10:39:05*
%MOMM*%
%LPD*%
G01*
G04 APERTURE LIST*
%ADD10C,0.100000*%
%ADD11C,0.150000*%
%ADD12C,0.300000*%
%ADD13C,0.400000*%
%ADD14C,0.127000*%
%ADD15C,0.120000*%
G04 APERTURE END LIST*
D10*
D11*
X177002200Y-166007200D02*
X285002200Y-166007200D01*
X285002200Y-198007200D01*
X177002200Y-198007200D01*
X177002200Y-166007200D01*
D10*
D11*
X10000000Y-10000000D02*
X287002200Y-10000000D01*
X287002200Y-200007200D01*
X10000000Y-200007200D01*
X10000000Y-10000000D01*
D10*
D11*
X12000000Y-12000000D02*
X285002200Y-12000000D01*
X285002200Y-198007200D01*
X12000000Y-198007200D01*
X12000000Y-12000000D01*
D10*
D11*
X60000000Y-12000000D02*
X60000000Y-10000000D01*
D10*
D11*
X110000000Y-12000000D02*
X110000000Y-10000000D01*
D10*
D11*
X160000000Y-12000000D02*
X160000000Y-10000000D01*
D10*
D11*
X210000000Y-12000000D02*
X210000000Y-10000000D01*
D10*
D11*
X260000000Y-12000000D02*
X260000000Y-10000000D01*
D10*
D11*
X35990476Y-11601404D02*
X35247619Y-11601404D01*
X35619047Y-11601404D02*
X35619047Y-10301404D01*
X35619047Y-10301404D02*
X35495238Y-10487119D01*
X35495238Y-10487119D02*
X35371428Y-10610928D01*
X35371428Y-10610928D02*
X35247619Y-10672833D01*
D10*
D11*
X85247619Y-10425214D02*
X85309523Y-10363309D01*
X85309523Y-10363309D02*
X85433333Y-10301404D01*
X85433333Y-10301404D02*
X85742857Y-10301404D01*
X85742857Y-10301404D02*
X85866666Y-10363309D01*
X85866666Y-10363309D02*
X85928571Y-10425214D01*
X85928571Y-10425214D02*
X85990476Y-10549023D01*
X85990476Y-10549023D02*
X85990476Y-10672833D01*
X85990476Y-10672833D02*
X85928571Y-10858547D01*
X85928571Y-10858547D02*
X85185714Y-11601404D01*
X85185714Y-11601404D02*
X85990476Y-11601404D01*
D10*
D11*
X135185714Y-10301404D02*
X135990476Y-10301404D01*
X135990476Y-10301404D02*
X135557142Y-10796642D01*
X135557142Y-10796642D02*
X135742857Y-10796642D01*
X135742857Y-10796642D02*
X135866666Y-10858547D01*
X135866666Y-10858547D02*
X135928571Y-10920452D01*
X135928571Y-10920452D02*
X135990476Y-11044261D01*
X135990476Y-11044261D02*
X135990476Y-11353785D01*
X135990476Y-11353785D02*
X135928571Y-11477595D01*
X135928571Y-11477595D02*
X135866666Y-11539500D01*
X135866666Y-11539500D02*
X135742857Y-11601404D01*
X135742857Y-11601404D02*
X135371428Y-11601404D01*
X135371428Y-11601404D02*
X135247619Y-11539500D01*
X135247619Y-11539500D02*
X135185714Y-11477595D01*
D10*
D11*
X185866666Y-10734738D02*
X185866666Y-11601404D01*
X185557142Y-10239500D02*
X185247619Y-11168071D01*
X185247619Y-11168071D02*
X186052380Y-11168071D01*
D10*
D11*
X235928571Y-10301404D02*
X235309523Y-10301404D01*
X235309523Y-10301404D02*
X235247619Y-10920452D01*
X235247619Y-10920452D02*
X235309523Y-10858547D01*
X235309523Y-10858547D02*
X235433333Y-10796642D01*
X235433333Y-10796642D02*
X235742857Y-10796642D01*
X235742857Y-10796642D02*
X235866666Y-10858547D01*
X235866666Y-10858547D02*
X235928571Y-10920452D01*
X235928571Y-10920452D02*
X235990476Y-11044261D01*
X235990476Y-11044261D02*
X235990476Y-11353785D01*
X235990476Y-11353785D02*
X235928571Y-11477595D01*
X235928571Y-11477595D02*
X235866666Y-11539500D01*
X235866666Y-11539500D02*
X235742857Y-11601404D01*
X235742857Y-11601404D02*
X235433333Y-11601404D01*
X235433333Y-11601404D02*
X235309523Y-11539500D01*
X235309523Y-11539500D02*
X235247619Y-11477595D01*
D10*
D11*
X285866666Y-10301404D02*
X285619047Y-10301404D01*
X285619047Y-10301404D02*
X285495238Y-10363309D01*
X285495238Y-10363309D02*
X285433333Y-10425214D01*
X285433333Y-10425214D02*
X285309523Y-10610928D01*
X285309523Y-10610928D02*
X285247619Y-10858547D01*
X285247619Y-10858547D02*
X285247619Y-11353785D01*
X285247619Y-11353785D02*
X285309523Y-11477595D01*
X285309523Y-11477595D02*
X285371428Y-11539500D01*
X285371428Y-11539500D02*
X285495238Y-11601404D01*
X285495238Y-11601404D02*
X285742857Y-11601404D01*
X285742857Y-11601404D02*
X285866666Y-11539500D01*
X285866666Y-11539500D02*
X285928571Y-11477595D01*
X285928571Y-11477595D02*
X285990476Y-11353785D01*
X285990476Y-11353785D02*
X285990476Y-11044261D01*
X285990476Y-11044261D02*
X285928571Y-10920452D01*
X285928571Y-10920452D02*
X285866666Y-10858547D01*
X285866666Y-10858547D02*
X285742857Y-10796642D01*
X285742857Y-10796642D02*
X285495238Y-10796642D01*
X285495238Y-10796642D02*
X285371428Y-10858547D01*
X285371428Y-10858547D02*
X285309523Y-10920452D01*
X285309523Y-10920452D02*
X285247619Y-11044261D01*
D10*
D11*
X60000000Y-198007200D02*
X60000000Y-200007200D01*
D10*
D11*
X110000000Y-198007200D02*
X110000000Y-200007200D01*
D10*
D11*
X160000000Y-198007200D02*
X160000000Y-200007200D01*
D10*
D11*
X210000000Y-198007200D02*
X210000000Y-200007200D01*
D10*
D11*
X260000000Y-198007200D02*
X260000000Y-200007200D01*
D10*
D11*
X35990476Y-199608604D02*
X35247619Y-199608604D01*
X35619047Y-199608604D02*
X35619047Y-198308604D01*
X35619047Y-198308604D02*
X35495238Y-198494319D01*
X35495238Y-198494319D02*
X35371428Y-198618128D01*
X35371428Y-198618128D02*
X35247619Y-198680033D01*
D10*
D11*
X85247619Y-198432414D02*
X85309523Y-198370509D01*
X85309523Y-198370509D02*
X85433333Y-198308604D01*
X85433333Y-198308604D02*
X85742857Y-198308604D01*
X85742857Y-198308604D02*
X85866666Y-198370509D01*
X85866666Y-198370509D02*
X85928571Y-198432414D01*
X85928571Y-198432414D02*
X85990476Y-198556223D01*
X85990476Y-198556223D02*
X85990476Y-198680033D01*
X85990476Y-198680033D02*
X85928571Y-198865747D01*
X85928571Y-198865747D02*
X85185714Y-199608604D01*
X85185714Y-199608604D02*
X85990476Y-199608604D01*
D10*
D11*
X135185714Y-198308604D02*
X135990476Y-198308604D01*
X135990476Y-198308604D02*
X135557142Y-198803842D01*
X135557142Y-198803842D02*
X135742857Y-198803842D01*
X135742857Y-198803842D02*
X135866666Y-198865747D01*
X135866666Y-198865747D02*
X135928571Y-198927652D01*
X135928571Y-198927652D02*
X135990476Y-199051461D01*
X135990476Y-199051461D02*
X135990476Y-199360985D01*
X135990476Y-199360985D02*
X135928571Y-199484795D01*
X135928571Y-199484795D02*
X135866666Y-199546700D01*
X135866666Y-199546700D02*
X135742857Y-199608604D01*
X135742857Y-199608604D02*
X135371428Y-199608604D01*
X135371428Y-199608604D02*
X135247619Y-199546700D01*
X135247619Y-199546700D02*
X135185714Y-199484795D01*
D10*
D11*
X185866666Y-198741938D02*
X185866666Y-199608604D01*
X185557142Y-198246700D02*
X185247619Y-199175271D01*
X185247619Y-199175271D02*
X186052380Y-199175271D01*
D10*
D11*
X235928571Y-198308604D02*
X235309523Y-198308604D01*
X235309523Y-198308604D02*
X235247619Y-198927652D01*
X235247619Y-198927652D02*
X235309523Y-198865747D01*
X235309523Y-198865747D02*
X235433333Y-198803842D01*
X235433333Y-198803842D02*
X235742857Y-198803842D01*
X235742857Y-198803842D02*
X235866666Y-198865747D01*
X235866666Y-198865747D02*
X235928571Y-198927652D01*
X235928571Y-198927652D02*
X235990476Y-199051461D01*
X235990476Y-199051461D02*
X235990476Y-199360985D01*
X235990476Y-199360985D02*
X235928571Y-199484795D01*
X235928571Y-199484795D02*
X235866666Y-199546700D01*
X235866666Y-199546700D02*
X235742857Y-199608604D01*
X235742857Y-199608604D02*
X235433333Y-199608604D01*
X235433333Y-199608604D02*
X235309523Y-199546700D01*
X235309523Y-199546700D02*
X235247619Y-199484795D01*
D10*
D11*
X285866666Y-198308604D02*
X285619047Y-198308604D01*
X285619047Y-198308604D02*
X285495238Y-198370509D01*
X285495238Y-198370509D02*
X285433333Y-198432414D01*
X285433333Y-198432414D02*
X285309523Y-198618128D01*
X285309523Y-198618128D02*
X285247619Y-198865747D01*
X285247619Y-198865747D02*
X285247619Y-199360985D01*
X285247619Y-199360985D02*
X285309523Y-199484795D01*
X285309523Y-199484795D02*
X285371428Y-199546700D01*
X285371428Y-199546700D02*
X285495238Y-199608604D01*
X285495238Y-199608604D02*
X285742857Y-199608604D01*
X285742857Y-199608604D02*
X285866666Y-199546700D01*
X285866666Y-199546700D02*
X285928571Y-199484795D01*
X285928571Y-199484795D02*
X285990476Y-199360985D01*
X285990476Y-199360985D02*
X285990476Y-199051461D01*
X285990476Y-199051461D02*
X285928571Y-198927652D01*
X285928571Y-198927652D02*
X285866666Y-198865747D01*
X285866666Y-198865747D02*
X285742857Y-198803842D01*
X285742857Y-198803842D02*
X285495238Y-198803842D01*
X285495238Y-198803842D02*
X285371428Y-198865747D01*
X285371428Y-198865747D02*
X285309523Y-198927652D01*
X285309523Y-198927652D02*
X285247619Y-199051461D01*
D10*
D11*
X10000000Y-60000000D02*
X12000000Y-60000000D01*
D10*
D11*
X10000000Y-110000000D02*
X12000000Y-110000000D01*
D10*
D11*
X10000000Y-160000000D02*
X12000000Y-160000000D01*
D10*
D11*
X10690476Y-35229976D02*
X11309523Y-35229976D01*
X10566666Y-35601404D02*
X10999999Y-34301404D01*
X10999999Y-34301404D02*
X11433333Y-35601404D01*
D10*
D11*
X11092857Y-84920452D02*
X11278571Y-84982357D01*
X11278571Y-84982357D02*
X11340476Y-85044261D01*
X11340476Y-85044261D02*
X11402380Y-85168071D01*
X11402380Y-85168071D02*
X11402380Y-85353785D01*
X11402380Y-85353785D02*
X11340476Y-85477595D01*
X11340476Y-85477595D02*
X11278571Y-85539500D01*
X11278571Y-85539500D02*
X11154761Y-85601404D01*
X11154761Y-85601404D02*
X10659523Y-85601404D01*
X10659523Y-85601404D02*
X10659523Y-84301404D01*
X10659523Y-84301404D02*
X11092857Y-84301404D01*
X11092857Y-84301404D02*
X11216666Y-84363309D01*
X11216666Y-84363309D02*
X11278571Y-84425214D01*
X11278571Y-84425214D02*
X11340476Y-84549023D01*
X11340476Y-84549023D02*
X11340476Y-84672833D01*
X11340476Y-84672833D02*
X11278571Y-84796642D01*
X11278571Y-84796642D02*
X11216666Y-84858547D01*
X11216666Y-84858547D02*
X11092857Y-84920452D01*
X11092857Y-84920452D02*
X10659523Y-84920452D01*
D10*
D11*
X11402380Y-135477595D02*
X11340476Y-135539500D01*
X11340476Y-135539500D02*
X11154761Y-135601404D01*
X11154761Y-135601404D02*
X11030952Y-135601404D01*
X11030952Y-135601404D02*
X10845238Y-135539500D01*
X10845238Y-135539500D02*
X10721428Y-135415690D01*
X10721428Y-135415690D02*
X10659523Y-135291880D01*
X10659523Y-135291880D02*
X10597619Y-135044261D01*
X10597619Y-135044261D02*
X10597619Y-134858547D01*
X10597619Y-134858547D02*
X10659523Y-134610928D01*
X10659523Y-134610928D02*
X10721428Y-134487119D01*
X10721428Y-134487119D02*
X10845238Y-134363309D01*
X10845238Y-134363309D02*
X11030952Y-134301404D01*
X11030952Y-134301404D02*
X11154761Y-134301404D01*
X11154761Y-134301404D02*
X11340476Y-134363309D01*
X11340476Y-134363309D02*
X11402380Y-134425214D01*
D10*
D11*
X10659523Y-185601404D02*
X10659523Y-184301404D01*
X10659523Y-184301404D02*
X10969047Y-184301404D01*
X10969047Y-184301404D02*
X11154761Y-184363309D01*
X11154761Y-184363309D02*
X11278571Y-184487119D01*
X11278571Y-184487119D02*
X11340476Y-184610928D01*
X11340476Y-184610928D02*
X11402380Y-184858547D01*
X11402380Y-184858547D02*
X11402380Y-185044261D01*
X11402380Y-185044261D02*
X11340476Y-185291880D01*
X11340476Y-185291880D02*
X11278571Y-185415690D01*
X11278571Y-185415690D02*
X11154761Y-185539500D01*
X11154761Y-185539500D02*
X10969047Y-185601404D01*
X10969047Y-185601404D02*
X10659523Y-185601404D01*
D10*
D11*
X287002200Y-60000000D02*
X285002200Y-60000000D01*
D10*
D11*
X287002200Y-110000000D02*
X285002200Y-110000000D01*
D10*
D11*
X287002200Y-160000000D02*
X285002200Y-160000000D01*
D10*
D11*
X285692676Y-35229976D02*
X286311723Y-35229976D01*
X285568866Y-35601404D02*
X286002199Y-34301404D01*
X286002199Y-34301404D02*
X286435533Y-35601404D01*
D10*
D11*
X286095057Y-84920452D02*
X286280771Y-84982357D01*
X286280771Y-84982357D02*
X286342676Y-85044261D01*
X286342676Y-85044261D02*
X286404580Y-85168071D01*
X286404580Y-85168071D02*
X286404580Y-85353785D01*
X286404580Y-85353785D02*
X286342676Y-85477595D01*
X286342676Y-85477595D02*
X286280771Y-85539500D01*
X286280771Y-85539500D02*
X286156961Y-85601404D01*
X286156961Y-85601404D02*
X285661723Y-85601404D01*
X285661723Y-85601404D02*
X285661723Y-84301404D01*
X285661723Y-84301404D02*
X286095057Y-84301404D01*
X286095057Y-84301404D02*
X286218866Y-84363309D01*
X286218866Y-84363309D02*
X286280771Y-84425214D01*
X286280771Y-84425214D02*
X286342676Y-84549023D01*
X286342676Y-84549023D02*
X286342676Y-84672833D01*
X286342676Y-84672833D02*
X286280771Y-84796642D01*
X286280771Y-84796642D02*
X286218866Y-84858547D01*
X286218866Y-84858547D02*
X286095057Y-84920452D01*
X286095057Y-84920452D02*
X285661723Y-84920452D01*
D10*
D11*
X286404580Y-135477595D02*
X286342676Y-135539500D01*
X286342676Y-135539500D02*
X286156961Y-135601404D01*
X286156961Y-135601404D02*
X286033152Y-135601404D01*
X286033152Y-135601404D02*
X285847438Y-135539500D01*
X285847438Y-135539500D02*
X285723628Y-135415690D01*
X285723628Y-135415690D02*
X285661723Y-135291880D01*
X285661723Y-135291880D02*
X285599819Y-135044261D01*
X285599819Y-135044261D02*
X285599819Y-134858547D01*
X285599819Y-134858547D02*
X285661723Y-134610928D01*
X285661723Y-134610928D02*
X285723628Y-134487119D01*
X285723628Y-134487119D02*
X285847438Y-134363309D01*
X285847438Y-134363309D02*
X286033152Y-134301404D01*
X286033152Y-134301404D02*
X286156961Y-134301404D01*
X286156961Y-134301404D02*
X286342676Y-134363309D01*
X286342676Y-134363309D02*
X286404580Y-134425214D01*
D10*
D11*
X285661723Y-185601404D02*
X285661723Y-184301404D01*
X285661723Y-184301404D02*
X285971247Y-184301404D01*
X285971247Y-184301404D02*
X286156961Y-184363309D01*
X286156961Y-184363309D02*
X286280771Y-184487119D01*
X286280771Y-184487119D02*
X286342676Y-184610928D01*
X286342676Y-184610928D02*
X286404580Y-184858547D01*
X286404580Y-184858547D02*
X286404580Y-185044261D01*
X286404580Y-185044261D02*
X286342676Y-185291880D01*
X286342676Y-185291880D02*
X286280771Y-185415690D01*
X286280771Y-185415690D02*
X286156961Y-185539500D01*
X286156961Y-185539500D02*
X285971247Y-185601404D01*
X285971247Y-185601404D02*
X285661723Y-185601404D01*
D10*
D11*
X200359342Y-193801128D02*
X200359342Y-192301128D01*
X200359342Y-192301128D02*
X200716485Y-192301128D01*
X200716485Y-192301128D02*
X200930771Y-192372557D01*
X200930771Y-192372557D02*
X201073628Y-192515414D01*
X201073628Y-192515414D02*
X201145057Y-192658271D01*
X201145057Y-192658271D02*
X201216485Y-192943985D01*
X201216485Y-192943985D02*
X201216485Y-193158271D01*
X201216485Y-193158271D02*
X201145057Y-193443985D01*
X201145057Y-193443985D02*
X201073628Y-193586842D01*
X201073628Y-193586842D02*
X200930771Y-193729700D01*
X200930771Y-193729700D02*
X200716485Y-193801128D01*
X200716485Y-193801128D02*
X200359342Y-193801128D01*
X202502200Y-193801128D02*
X202502200Y-193015414D01*
X202502200Y-193015414D02*
X202430771Y-192872557D01*
X202430771Y-192872557D02*
X202287914Y-192801128D01*
X202287914Y-192801128D02*
X202002200Y-192801128D01*
X202002200Y-192801128D02*
X201859342Y-192872557D01*
X202502200Y-193729700D02*
X202359342Y-193801128D01*
X202359342Y-193801128D02*
X202002200Y-193801128D01*
X202002200Y-193801128D02*
X201859342Y-193729700D01*
X201859342Y-193729700D02*
X201787914Y-193586842D01*
X201787914Y-193586842D02*
X201787914Y-193443985D01*
X201787914Y-193443985D02*
X201859342Y-193301128D01*
X201859342Y-193301128D02*
X202002200Y-193229700D01*
X202002200Y-193229700D02*
X202359342Y-193229700D01*
X202359342Y-193229700D02*
X202502200Y-193158271D01*
X203002200Y-192801128D02*
X203573628Y-192801128D01*
X203216485Y-192301128D02*
X203216485Y-193586842D01*
X203216485Y-193586842D02*
X203287914Y-193729700D01*
X203287914Y-193729700D02*
X203430771Y-193801128D01*
X203430771Y-193801128D02*
X203573628Y-193801128D01*
X204645057Y-193729700D02*
X204502200Y-193801128D01*
X204502200Y-193801128D02*
X204216486Y-193801128D01*
X204216486Y-193801128D02*
X204073628Y-193729700D01*
X204073628Y-193729700D02*
X204002200Y-193586842D01*
X204002200Y-193586842D02*
X204002200Y-193015414D01*
X204002200Y-193015414D02*
X204073628Y-192872557D01*
X204073628Y-192872557D02*
X204216486Y-192801128D01*
X204216486Y-192801128D02*
X204502200Y-192801128D01*
X204502200Y-192801128D02*
X204645057Y-192872557D01*
X204645057Y-192872557D02*
X204716486Y-193015414D01*
X204716486Y-193015414D02*
X204716486Y-193158271D01*
X204716486Y-193158271D02*
X204002200Y-193301128D01*
X205359342Y-193658271D02*
X205430771Y-193729700D01*
X205430771Y-193729700D02*
X205359342Y-193801128D01*
X205359342Y-193801128D02*
X205287914Y-193729700D01*
X205287914Y-193729700D02*
X205359342Y-193658271D01*
X205359342Y-193658271D02*
X205359342Y-193801128D01*
X205359342Y-192872557D02*
X205430771Y-192943985D01*
X205430771Y-192943985D02*
X205359342Y-193015414D01*
X205359342Y-193015414D02*
X205287914Y-192943985D01*
X205287914Y-192943985D02*
X205359342Y-192872557D01*
X205359342Y-192872557D02*
X205359342Y-193015414D01*
D10*
D11*
X177002200Y-194507200D02*
X285002200Y-194507200D01*
D10*
D11*
X178359342Y-196601128D02*
X178359342Y-195101128D01*
X179216485Y-196601128D02*
X178573628Y-195743985D01*
X179216485Y-195101128D02*
X178359342Y-195958271D01*
X179859342Y-196601128D02*
X179859342Y-195601128D01*
X179859342Y-195101128D02*
X179787914Y-195172557D01*
X179787914Y-195172557D02*
X179859342Y-195243985D01*
X179859342Y-195243985D02*
X179930771Y-195172557D01*
X179930771Y-195172557D02*
X179859342Y-195101128D01*
X179859342Y-195101128D02*
X179859342Y-195243985D01*
X181430771Y-196458271D02*
X181359343Y-196529700D01*
X181359343Y-196529700D02*
X181145057Y-196601128D01*
X181145057Y-196601128D02*
X181002200Y-196601128D01*
X181002200Y-196601128D02*
X180787914Y-196529700D01*
X180787914Y-196529700D02*
X180645057Y-196386842D01*
X180645057Y-196386842D02*
X180573628Y-196243985D01*
X180573628Y-196243985D02*
X180502200Y-195958271D01*
X180502200Y-195958271D02*
X180502200Y-195743985D01*
X180502200Y-195743985D02*
X180573628Y-195458271D01*
X180573628Y-195458271D02*
X180645057Y-195315414D01*
X180645057Y-195315414D02*
X180787914Y-195172557D01*
X180787914Y-195172557D02*
X181002200Y-195101128D01*
X181002200Y-195101128D02*
X181145057Y-195101128D01*
X181145057Y-195101128D02*
X181359343Y-195172557D01*
X181359343Y-195172557D02*
X181430771Y-195243985D01*
X182716486Y-196601128D02*
X182716486Y-195815414D01*
X182716486Y-195815414D02*
X182645057Y-195672557D01*
X182645057Y-195672557D02*
X182502200Y-195601128D01*
X182502200Y-195601128D02*
X182216486Y-195601128D01*
X182216486Y-195601128D02*
X182073628Y-195672557D01*
X182716486Y-196529700D02*
X182573628Y-196601128D01*
X182573628Y-196601128D02*
X182216486Y-196601128D01*
X182216486Y-196601128D02*
X182073628Y-196529700D01*
X182073628Y-196529700D02*
X182002200Y-196386842D01*
X182002200Y-196386842D02*
X182002200Y-196243985D01*
X182002200Y-196243985D02*
X182073628Y-196101128D01*
X182073628Y-196101128D02*
X182216486Y-196029700D01*
X182216486Y-196029700D02*
X182573628Y-196029700D01*
X182573628Y-196029700D02*
X182716486Y-195958271D01*
X184073629Y-196601128D02*
X184073629Y-195101128D01*
X184073629Y-196529700D02*
X183930771Y-196601128D01*
X183930771Y-196601128D02*
X183645057Y-196601128D01*
X183645057Y-196601128D02*
X183502200Y-196529700D01*
X183502200Y-196529700D02*
X183430771Y-196458271D01*
X183430771Y-196458271D02*
X183359343Y-196315414D01*
X183359343Y-196315414D02*
X183359343Y-195886842D01*
X183359343Y-195886842D02*
X183430771Y-195743985D01*
X183430771Y-195743985D02*
X183502200Y-195672557D01*
X183502200Y-195672557D02*
X183645057Y-195601128D01*
X183645057Y-195601128D02*
X183930771Y-195601128D01*
X183930771Y-195601128D02*
X184073629Y-195672557D01*
X185930771Y-195815414D02*
X186430771Y-195815414D01*
X186645057Y-196601128D02*
X185930771Y-196601128D01*
X185930771Y-196601128D02*
X185930771Y-195101128D01*
X185930771Y-195101128D02*
X186645057Y-195101128D01*
X187287914Y-196458271D02*
X187359343Y-196529700D01*
X187359343Y-196529700D02*
X187287914Y-196601128D01*
X187287914Y-196601128D02*
X187216486Y-196529700D01*
X187216486Y-196529700D02*
X187287914Y-196458271D01*
X187287914Y-196458271D02*
X187287914Y-196601128D01*
X188002200Y-196601128D02*
X188002200Y-195101128D01*
X188002200Y-195101128D02*
X188359343Y-195101128D01*
X188359343Y-195101128D02*
X188573629Y-195172557D01*
X188573629Y-195172557D02*
X188716486Y-195315414D01*
X188716486Y-195315414D02*
X188787915Y-195458271D01*
X188787915Y-195458271D02*
X188859343Y-195743985D01*
X188859343Y-195743985D02*
X188859343Y-195958271D01*
X188859343Y-195958271D02*
X188787915Y-196243985D01*
X188787915Y-196243985D02*
X188716486Y-196386842D01*
X188716486Y-196386842D02*
X188573629Y-196529700D01*
X188573629Y-196529700D02*
X188359343Y-196601128D01*
X188359343Y-196601128D02*
X188002200Y-196601128D01*
X189502200Y-196458271D02*
X189573629Y-196529700D01*
X189573629Y-196529700D02*
X189502200Y-196601128D01*
X189502200Y-196601128D02*
X189430772Y-196529700D01*
X189430772Y-196529700D02*
X189502200Y-196458271D01*
X189502200Y-196458271D02*
X189502200Y-196601128D01*
X190145058Y-196172557D02*
X190859344Y-196172557D01*
X190002201Y-196601128D02*
X190502201Y-195101128D01*
X190502201Y-195101128D02*
X191002201Y-196601128D01*
X191502200Y-196458271D02*
X191573629Y-196529700D01*
X191573629Y-196529700D02*
X191502200Y-196601128D01*
X191502200Y-196601128D02*
X191430772Y-196529700D01*
X191430772Y-196529700D02*
X191502200Y-196458271D01*
X191502200Y-196458271D02*
X191502200Y-196601128D01*
X194502200Y-196601128D02*
X194502200Y-195101128D01*
X194645058Y-196029700D02*
X195073629Y-196601128D01*
X195073629Y-195601128D02*
X194502200Y-196172557D01*
X195716486Y-196601128D02*
X195716486Y-195601128D01*
X195716486Y-195101128D02*
X195645058Y-195172557D01*
X195645058Y-195172557D02*
X195716486Y-195243985D01*
X195716486Y-195243985D02*
X195787915Y-195172557D01*
X195787915Y-195172557D02*
X195716486Y-195101128D01*
X195716486Y-195101128D02*
X195716486Y-195243985D01*
X197073630Y-196529700D02*
X196930772Y-196601128D01*
X196930772Y-196601128D02*
X196645058Y-196601128D01*
X196645058Y-196601128D02*
X196502201Y-196529700D01*
X196502201Y-196529700D02*
X196430772Y-196458271D01*
X196430772Y-196458271D02*
X196359344Y-196315414D01*
X196359344Y-196315414D02*
X196359344Y-195886842D01*
X196359344Y-195886842D02*
X196430772Y-195743985D01*
X196430772Y-195743985D02*
X196502201Y-195672557D01*
X196502201Y-195672557D02*
X196645058Y-195601128D01*
X196645058Y-195601128D02*
X196930772Y-195601128D01*
X196930772Y-195601128D02*
X197073630Y-195672557D01*
X198359344Y-196601128D02*
X198359344Y-195815414D01*
X198359344Y-195815414D02*
X198287915Y-195672557D01*
X198287915Y-195672557D02*
X198145058Y-195601128D01*
X198145058Y-195601128D02*
X197859344Y-195601128D01*
X197859344Y-195601128D02*
X197716486Y-195672557D01*
X198359344Y-196529700D02*
X198216486Y-196601128D01*
X198216486Y-196601128D02*
X197859344Y-196601128D01*
X197859344Y-196601128D02*
X197716486Y-196529700D01*
X197716486Y-196529700D02*
X197645058Y-196386842D01*
X197645058Y-196386842D02*
X197645058Y-196243985D01*
X197645058Y-196243985D02*
X197716486Y-196101128D01*
X197716486Y-196101128D02*
X197859344Y-196029700D01*
X197859344Y-196029700D02*
X198216486Y-196029700D01*
X198216486Y-196029700D02*
X198359344Y-195958271D01*
X199716487Y-196601128D02*
X199716487Y-195101128D01*
X199716487Y-196529700D02*
X199573629Y-196601128D01*
X199573629Y-196601128D02*
X199287915Y-196601128D01*
X199287915Y-196601128D02*
X199145058Y-196529700D01*
X199145058Y-196529700D02*
X199073629Y-196458271D01*
X199073629Y-196458271D02*
X199002201Y-196315414D01*
X199002201Y-196315414D02*
X199002201Y-195886842D01*
X199002201Y-195886842D02*
X199073629Y-195743985D01*
X199073629Y-195743985D02*
X199145058Y-195672557D01*
X199145058Y-195672557D02*
X199287915Y-195601128D01*
X199287915Y-195601128D02*
X199573629Y-195601128D01*
X199573629Y-195601128D02*
X199716487Y-195672557D01*
X201430772Y-195101128D02*
X202430772Y-195101128D01*
X202430772Y-195101128D02*
X201787915Y-196601128D01*
X203002200Y-196458271D02*
X203073629Y-196529700D01*
X203073629Y-196529700D02*
X203002200Y-196601128D01*
X203002200Y-196601128D02*
X202930772Y-196529700D01*
X202930772Y-196529700D02*
X203002200Y-196458271D01*
X203002200Y-196458271D02*
X203002200Y-196601128D01*
X204002201Y-195101128D02*
X204145058Y-195101128D01*
X204145058Y-195101128D02*
X204287915Y-195172557D01*
X204287915Y-195172557D02*
X204359344Y-195243985D01*
X204359344Y-195243985D02*
X204430772Y-195386842D01*
X204430772Y-195386842D02*
X204502201Y-195672557D01*
X204502201Y-195672557D02*
X204502201Y-196029700D01*
X204502201Y-196029700D02*
X204430772Y-196315414D01*
X204430772Y-196315414D02*
X204359344Y-196458271D01*
X204359344Y-196458271D02*
X204287915Y-196529700D01*
X204287915Y-196529700D02*
X204145058Y-196601128D01*
X204145058Y-196601128D02*
X204002201Y-196601128D01*
X204002201Y-196601128D02*
X203859344Y-196529700D01*
X203859344Y-196529700D02*
X203787915Y-196458271D01*
X203787915Y-196458271D02*
X203716486Y-196315414D01*
X203716486Y-196315414D02*
X203645058Y-196029700D01*
X203645058Y-196029700D02*
X203645058Y-195672557D01*
X203645058Y-195672557D02*
X203716486Y-195386842D01*
X203716486Y-195386842D02*
X203787915Y-195243985D01*
X203787915Y-195243985D02*
X203859344Y-195172557D01*
X203859344Y-195172557D02*
X204002201Y-195101128D01*
X205145057Y-196458271D02*
X205216486Y-196529700D01*
X205216486Y-196529700D02*
X205145057Y-196601128D01*
X205145057Y-196601128D02*
X205073629Y-196529700D01*
X205073629Y-196529700D02*
X205145057Y-196458271D01*
X205145057Y-196458271D02*
X205145057Y-196601128D01*
X206645058Y-196601128D02*
X205787915Y-196601128D01*
X206216486Y-196601128D02*
X206216486Y-195101128D01*
X206216486Y-195101128D02*
X206073629Y-195315414D01*
X206073629Y-195315414D02*
X205930772Y-195458271D01*
X205930772Y-195458271D02*
X205787915Y-195529700D01*
D10*
D11*
X177002200Y-191507200D02*
X285002200Y-191507200D01*
D10*
D12*
X264216485Y-193801128D02*
X263716485Y-193086842D01*
X263359342Y-193801128D02*
X263359342Y-192301128D01*
X263359342Y-192301128D02*
X263930771Y-192301128D01*
X263930771Y-192301128D02*
X264073628Y-192372557D01*
X264073628Y-192372557D02*
X264145057Y-192443985D01*
X264145057Y-192443985D02*
X264216485Y-192586842D01*
X264216485Y-192586842D02*
X264216485Y-192801128D01*
X264216485Y-192801128D02*
X264145057Y-192943985D01*
X264145057Y-192943985D02*
X264073628Y-193015414D01*
X264073628Y-193015414D02*
X263930771Y-193086842D01*
X263930771Y-193086842D02*
X263359342Y-193086842D01*
X265430771Y-193729700D02*
X265287914Y-193801128D01*
X265287914Y-193801128D02*
X265002200Y-193801128D01*
X265002200Y-193801128D02*
X264859342Y-193729700D01*
X264859342Y-193729700D02*
X264787914Y-193586842D01*
X264787914Y-193586842D02*
X264787914Y-193015414D01*
X264787914Y-193015414D02*
X264859342Y-192872557D01*
X264859342Y-192872557D02*
X265002200Y-192801128D01*
X265002200Y-192801128D02*
X265287914Y-192801128D01*
X265287914Y-192801128D02*
X265430771Y-192872557D01*
X265430771Y-192872557D02*
X265502200Y-193015414D01*
X265502200Y-193015414D02*
X265502200Y-193158271D01*
X265502200Y-193158271D02*
X264787914Y-193301128D01*
X266002199Y-192801128D02*
X266359342Y-193801128D01*
X266359342Y-193801128D02*
X266716485Y-192801128D01*
X267287913Y-193658271D02*
X267359342Y-193729700D01*
X267359342Y-193729700D02*
X267287913Y-193801128D01*
X267287913Y-193801128D02*
X267216485Y-193729700D01*
X267216485Y-193729700D02*
X267287913Y-193658271D01*
X267287913Y-193658271D02*
X267287913Y-193801128D01*
X267287913Y-192872557D02*
X267359342Y-192943985D01*
X267359342Y-192943985D02*
X267287913Y-193015414D01*
X267287913Y-193015414D02*
X267216485Y-192943985D01*
X267216485Y-192943985D02*
X267287913Y-192872557D01*
X267287913Y-192872557D02*
X267287913Y-193015414D01*
D10*
D11*
X178287914Y-193729700D02*
X178502200Y-193801128D01*
X178502200Y-193801128D02*
X178859342Y-193801128D01*
X178859342Y-193801128D02*
X179002200Y-193729700D01*
X179002200Y-193729700D02*
X179073628Y-193658271D01*
X179073628Y-193658271D02*
X179145057Y-193515414D01*
X179145057Y-193515414D02*
X179145057Y-193372557D01*
X179145057Y-193372557D02*
X179073628Y-193229700D01*
X179073628Y-193229700D02*
X179002200Y-193158271D01*
X179002200Y-193158271D02*
X178859342Y-193086842D01*
X178859342Y-193086842D02*
X178573628Y-193015414D01*
X178573628Y-193015414D02*
X178430771Y-192943985D01*
X178430771Y-192943985D02*
X178359342Y-192872557D01*
X178359342Y-192872557D02*
X178287914Y-192729700D01*
X178287914Y-192729700D02*
X178287914Y-192586842D01*
X178287914Y-192586842D02*
X178359342Y-192443985D01*
X178359342Y-192443985D02*
X178430771Y-192372557D01*
X178430771Y-192372557D02*
X178573628Y-192301128D01*
X178573628Y-192301128D02*
X178930771Y-192301128D01*
X178930771Y-192301128D02*
X179145057Y-192372557D01*
X179787913Y-193801128D02*
X179787913Y-192801128D01*
X179787913Y-192301128D02*
X179716485Y-192372557D01*
X179716485Y-192372557D02*
X179787913Y-192443985D01*
X179787913Y-192443985D02*
X179859342Y-192372557D01*
X179859342Y-192372557D02*
X179787913Y-192301128D01*
X179787913Y-192301128D02*
X179787913Y-192443985D01*
X180359342Y-192801128D02*
X181145057Y-192801128D01*
X181145057Y-192801128D02*
X180359342Y-193801128D01*
X180359342Y-193801128D02*
X181145057Y-193801128D01*
X182287914Y-193729700D02*
X182145057Y-193801128D01*
X182145057Y-193801128D02*
X181859343Y-193801128D01*
X181859343Y-193801128D02*
X181716485Y-193729700D01*
X181716485Y-193729700D02*
X181645057Y-193586842D01*
X181645057Y-193586842D02*
X181645057Y-193015414D01*
X181645057Y-193015414D02*
X181716485Y-192872557D01*
X181716485Y-192872557D02*
X181859343Y-192801128D01*
X181859343Y-192801128D02*
X182145057Y-192801128D01*
X182145057Y-192801128D02*
X182287914Y-192872557D01*
X182287914Y-192872557D02*
X182359343Y-193015414D01*
X182359343Y-193015414D02*
X182359343Y-193158271D01*
X182359343Y-193158271D02*
X181645057Y-193301128D01*
X183002199Y-193658271D02*
X183073628Y-193729700D01*
X183073628Y-193729700D02*
X183002199Y-193801128D01*
X183002199Y-193801128D02*
X182930771Y-193729700D01*
X182930771Y-193729700D02*
X183002199Y-193658271D01*
X183002199Y-193658271D02*
X183002199Y-193801128D01*
X183002199Y-192872557D02*
X183073628Y-192943985D01*
X183073628Y-192943985D02*
X183002199Y-193015414D01*
X183002199Y-193015414D02*
X182930771Y-192943985D01*
X182930771Y-192943985D02*
X183002199Y-192872557D01*
X183002199Y-192872557D02*
X183002199Y-193015414D01*
X184787914Y-193372557D02*
X185502200Y-193372557D01*
X184645057Y-193801128D02*
X185145057Y-192301128D01*
X185145057Y-192301128D02*
X185645057Y-193801128D01*
X186787914Y-192801128D02*
X186787914Y-193801128D01*
X186430771Y-192229700D02*
X186073628Y-193301128D01*
X186073628Y-193301128D02*
X187002199Y-193301128D01*
D10*
D11*
X263359342Y-196601128D02*
X263359342Y-195101128D01*
X264716486Y-196601128D02*
X264716486Y-195101128D01*
X264716486Y-196529700D02*
X264573628Y-196601128D01*
X264573628Y-196601128D02*
X264287914Y-196601128D01*
X264287914Y-196601128D02*
X264145057Y-196529700D01*
X264145057Y-196529700D02*
X264073628Y-196458271D01*
X264073628Y-196458271D02*
X264002200Y-196315414D01*
X264002200Y-196315414D02*
X264002200Y-195886842D01*
X264002200Y-195886842D02*
X264073628Y-195743985D01*
X264073628Y-195743985D02*
X264145057Y-195672557D01*
X264145057Y-195672557D02*
X264287914Y-195601128D01*
X264287914Y-195601128D02*
X264573628Y-195601128D01*
X264573628Y-195601128D02*
X264716486Y-195672557D01*
X265430771Y-196458271D02*
X265502200Y-196529700D01*
X265502200Y-196529700D02*
X265430771Y-196601128D01*
X265430771Y-196601128D02*
X265359343Y-196529700D01*
X265359343Y-196529700D02*
X265430771Y-196458271D01*
X265430771Y-196458271D02*
X265430771Y-196601128D01*
X265430771Y-195672557D02*
X265502200Y-195743985D01*
X265502200Y-195743985D02*
X265430771Y-195815414D01*
X265430771Y-195815414D02*
X265359343Y-195743985D01*
X265359343Y-195743985D02*
X265430771Y-195672557D01*
X265430771Y-195672557D02*
X265430771Y-195815414D01*
X268073629Y-196601128D02*
X267216486Y-196601128D01*
X267645057Y-196601128D02*
X267645057Y-195101128D01*
X267645057Y-195101128D02*
X267502200Y-195315414D01*
X267502200Y-195315414D02*
X267359343Y-195458271D01*
X267359343Y-195458271D02*
X267216486Y-195529700D01*
X269787914Y-195029700D02*
X268502200Y-196958271D01*
X271073629Y-196601128D02*
X270216486Y-196601128D01*
X270645057Y-196601128D02*
X270645057Y-195101128D01*
X270645057Y-195101128D02*
X270502200Y-195315414D01*
X270502200Y-195315414D02*
X270359343Y-195458271D01*
X270359343Y-195458271D02*
X270216486Y-195529700D01*
D10*
D11*
X177002200Y-187507200D02*
X285002200Y-187507200D01*
D10*
D13*
X178430771Y-188232438D02*
X179573628Y-188232438D01*
X178752200Y-190232438D02*
X179002200Y-188232438D01*
X179978390Y-190232438D02*
X180145057Y-188899104D01*
X180228390Y-188232438D02*
X180121247Y-188327676D01*
X180121247Y-188327676D02*
X180204581Y-188422914D01*
X180204581Y-188422914D02*
X180311724Y-188327676D01*
X180311724Y-188327676D02*
X180228390Y-188232438D01*
X180228390Y-188232438D02*
X180204581Y-188422914D01*
X180799819Y-188899104D02*
X181561723Y-188899104D01*
X181168866Y-188232438D02*
X180954581Y-189946723D01*
X180954581Y-189946723D02*
X181026009Y-190137200D01*
X181026009Y-190137200D02*
X181204581Y-190232438D01*
X181204581Y-190232438D02*
X181395057Y-190232438D01*
X182335533Y-190232438D02*
X182156961Y-190137200D01*
X182156961Y-190137200D02*
X182085533Y-189946723D01*
X182085533Y-189946723D02*
X182299818Y-188232438D01*
X183859342Y-190137200D02*
X183656961Y-190232438D01*
X183656961Y-190232438D02*
X183276008Y-190232438D01*
X183276008Y-190232438D02*
X183097437Y-190137200D01*
X183097437Y-190137200D02*
X183026008Y-189946723D01*
X183026008Y-189946723D02*
X183121247Y-189184819D01*
X183121247Y-189184819D02*
X183240294Y-188994342D01*
X183240294Y-188994342D02*
X183442675Y-188899104D01*
X183442675Y-188899104D02*
X183823627Y-188899104D01*
X183823627Y-188899104D02*
X184002199Y-188994342D01*
X184002199Y-188994342D02*
X184073627Y-189184819D01*
X184073627Y-189184819D02*
X184049818Y-189375295D01*
X184049818Y-189375295D02*
X183073627Y-189565771D01*
X184811723Y-190041961D02*
X184895056Y-190137200D01*
X184895056Y-190137200D02*
X184787913Y-190232438D01*
X184787913Y-190232438D02*
X184704580Y-190137200D01*
X184704580Y-190137200D02*
X184811723Y-190041961D01*
X184811723Y-190041961D02*
X184787913Y-190232438D01*
X184942675Y-188994342D02*
X185026008Y-189089580D01*
X185026008Y-189089580D02*
X184918866Y-189184819D01*
X184918866Y-189184819D02*
X184835532Y-189089580D01*
X184835532Y-189089580D02*
X184942675Y-188994342D01*
X184942675Y-188994342D02*
X184918866Y-189184819D01*
D10*
D11*
X178859342Y-185615414D02*
X178359342Y-185615414D01*
X178359342Y-186401128D02*
X178359342Y-184901128D01*
X178359342Y-184901128D02*
X179073628Y-184901128D01*
X179645056Y-186401128D02*
X179645056Y-185401128D01*
X179645056Y-184901128D02*
X179573628Y-184972557D01*
X179573628Y-184972557D02*
X179645056Y-185043985D01*
X179645056Y-185043985D02*
X179716485Y-184972557D01*
X179716485Y-184972557D02*
X179645056Y-184901128D01*
X179645056Y-184901128D02*
X179645056Y-185043985D01*
X180573628Y-186401128D02*
X180430771Y-186329700D01*
X180430771Y-186329700D02*
X180359342Y-186186842D01*
X180359342Y-186186842D02*
X180359342Y-184901128D01*
X181716485Y-186329700D02*
X181573628Y-186401128D01*
X181573628Y-186401128D02*
X181287914Y-186401128D01*
X181287914Y-186401128D02*
X181145056Y-186329700D01*
X181145056Y-186329700D02*
X181073628Y-186186842D01*
X181073628Y-186186842D02*
X181073628Y-185615414D01*
X181073628Y-185615414D02*
X181145056Y-185472557D01*
X181145056Y-185472557D02*
X181287914Y-185401128D01*
X181287914Y-185401128D02*
X181573628Y-185401128D01*
X181573628Y-185401128D02*
X181716485Y-185472557D01*
X181716485Y-185472557D02*
X181787914Y-185615414D01*
X181787914Y-185615414D02*
X181787914Y-185758271D01*
X181787914Y-185758271D02*
X181073628Y-185901128D01*
X182430770Y-186258271D02*
X182502199Y-186329700D01*
X182502199Y-186329700D02*
X182430770Y-186401128D01*
X182430770Y-186401128D02*
X182359342Y-186329700D01*
X182359342Y-186329700D02*
X182430770Y-186258271D01*
X182430770Y-186258271D02*
X182430770Y-186401128D01*
X182430770Y-185472557D02*
X182502199Y-185543985D01*
X182502199Y-185543985D02*
X182430770Y-185615414D01*
X182430770Y-185615414D02*
X182359342Y-185543985D01*
X182359342Y-185543985D02*
X182430770Y-185472557D01*
X182430770Y-185472557D02*
X182430770Y-185615414D01*
X184287913Y-186401128D02*
X184287913Y-184901128D01*
X184287913Y-184901128D02*
X184859342Y-184901128D01*
X184859342Y-184901128D02*
X185002199Y-184972557D01*
X185002199Y-184972557D02*
X185073628Y-185043985D01*
X185073628Y-185043985D02*
X185145056Y-185186842D01*
X185145056Y-185186842D02*
X185145056Y-185401128D01*
X185145056Y-185401128D02*
X185073628Y-185543985D01*
X185073628Y-185543985D02*
X185002199Y-185615414D01*
X185002199Y-185615414D02*
X184859342Y-185686842D01*
X184859342Y-185686842D02*
X184287913Y-185686842D01*
X185787913Y-186401128D02*
X185787913Y-184901128D01*
X185787913Y-184901128D02*
X186287913Y-185972557D01*
X186287913Y-185972557D02*
X186787913Y-184901128D01*
X186787913Y-184901128D02*
X186787913Y-186401128D01*
X187502199Y-186401128D02*
X187502199Y-184901128D01*
X189073628Y-186258271D02*
X189002200Y-186329700D01*
X189002200Y-186329700D02*
X188787914Y-186401128D01*
X188787914Y-186401128D02*
X188645057Y-186401128D01*
X188645057Y-186401128D02*
X188430771Y-186329700D01*
X188430771Y-186329700D02*
X188287914Y-186186842D01*
X188287914Y-186186842D02*
X188216485Y-186043985D01*
X188216485Y-186043985D02*
X188145057Y-185758271D01*
X188145057Y-185758271D02*
X188145057Y-185543985D01*
X188145057Y-185543985D02*
X188216485Y-185258271D01*
X188216485Y-185258271D02*
X188287914Y-185115414D01*
X188287914Y-185115414D02*
X188430771Y-184972557D01*
X188430771Y-184972557D02*
X188645057Y-184901128D01*
X188645057Y-184901128D02*
X188787914Y-184901128D01*
X188787914Y-184901128D02*
X189002200Y-184972557D01*
X189002200Y-184972557D02*
X189073628Y-185043985D01*
X189359343Y-186543985D02*
X190502200Y-186543985D01*
X190859342Y-186401128D02*
X190859342Y-185401128D01*
X190859342Y-185543985D02*
X190930771Y-185472557D01*
X190930771Y-185472557D02*
X191073628Y-185401128D01*
X191073628Y-185401128D02*
X191287914Y-185401128D01*
X191287914Y-185401128D02*
X191430771Y-185472557D01*
X191430771Y-185472557D02*
X191502200Y-185615414D01*
X191502200Y-185615414D02*
X191502200Y-186401128D01*
X191502200Y-185615414D02*
X191573628Y-185472557D01*
X191573628Y-185472557D02*
X191716485Y-185401128D01*
X191716485Y-185401128D02*
X191930771Y-185401128D01*
X191930771Y-185401128D02*
X192073628Y-185472557D01*
X192073628Y-185472557D02*
X192145057Y-185615414D01*
X192145057Y-185615414D02*
X192145057Y-186401128D01*
X193073628Y-186401128D02*
X192930771Y-186329700D01*
X192930771Y-186329700D02*
X192859342Y-186258271D01*
X192859342Y-186258271D02*
X192787914Y-186115414D01*
X192787914Y-186115414D02*
X192787914Y-185686842D01*
X192787914Y-185686842D02*
X192859342Y-185543985D01*
X192859342Y-185543985D02*
X192930771Y-185472557D01*
X192930771Y-185472557D02*
X193073628Y-185401128D01*
X193073628Y-185401128D02*
X193287914Y-185401128D01*
X193287914Y-185401128D02*
X193430771Y-185472557D01*
X193430771Y-185472557D02*
X193502200Y-185543985D01*
X193502200Y-185543985D02*
X193573628Y-185686842D01*
X193573628Y-185686842D02*
X193573628Y-186115414D01*
X193573628Y-186115414D02*
X193502200Y-186258271D01*
X193502200Y-186258271D02*
X193430771Y-186329700D01*
X193430771Y-186329700D02*
X193287914Y-186401128D01*
X193287914Y-186401128D02*
X193073628Y-186401128D01*
X194859343Y-186401128D02*
X194859343Y-184901128D01*
X194859343Y-186329700D02*
X194716485Y-186401128D01*
X194716485Y-186401128D02*
X194430771Y-186401128D01*
X194430771Y-186401128D02*
X194287914Y-186329700D01*
X194287914Y-186329700D02*
X194216485Y-186258271D01*
X194216485Y-186258271D02*
X194145057Y-186115414D01*
X194145057Y-186115414D02*
X194145057Y-185686842D01*
X194145057Y-185686842D02*
X194216485Y-185543985D01*
X194216485Y-185543985D02*
X194287914Y-185472557D01*
X194287914Y-185472557D02*
X194430771Y-185401128D01*
X194430771Y-185401128D02*
X194716485Y-185401128D01*
X194716485Y-185401128D02*
X194859343Y-185472557D01*
X196216486Y-185401128D02*
X196216486Y-186401128D01*
X195573628Y-185401128D02*
X195573628Y-186186842D01*
X195573628Y-186186842D02*
X195645057Y-186329700D01*
X195645057Y-186329700D02*
X195787914Y-186401128D01*
X195787914Y-186401128D02*
X196002200Y-186401128D01*
X196002200Y-186401128D02*
X196145057Y-186329700D01*
X196145057Y-186329700D02*
X196216486Y-186258271D01*
X197145057Y-186401128D02*
X197002200Y-186329700D01*
X197002200Y-186329700D02*
X196930771Y-186186842D01*
X196930771Y-186186842D02*
X196930771Y-184901128D01*
X198287914Y-186329700D02*
X198145057Y-186401128D01*
X198145057Y-186401128D02*
X197859343Y-186401128D01*
X197859343Y-186401128D02*
X197716485Y-186329700D01*
X197716485Y-186329700D02*
X197645057Y-186186842D01*
X197645057Y-186186842D02*
X197645057Y-185615414D01*
X197645057Y-185615414D02*
X197716485Y-185472557D01*
X197716485Y-185472557D02*
X197859343Y-185401128D01*
X197859343Y-185401128D02*
X198145057Y-185401128D01*
X198145057Y-185401128D02*
X198287914Y-185472557D01*
X198287914Y-185472557D02*
X198359343Y-185615414D01*
X198359343Y-185615414D02*
X198359343Y-185758271D01*
X198359343Y-185758271D02*
X197645057Y-185901128D01*
X199002199Y-186258271D02*
X199073628Y-186329700D01*
X199073628Y-186329700D02*
X199002199Y-186401128D01*
X199002199Y-186401128D02*
X198930771Y-186329700D01*
X198930771Y-186329700D02*
X199002199Y-186258271D01*
X199002199Y-186258271D02*
X199002199Y-186401128D01*
X199716485Y-186401128D02*
X199716485Y-184901128D01*
X199859343Y-185829700D02*
X200287914Y-186401128D01*
X200287914Y-185401128D02*
X199716485Y-185972557D01*
X200930771Y-186401128D02*
X200930771Y-185401128D01*
X200930771Y-184901128D02*
X200859343Y-184972557D01*
X200859343Y-184972557D02*
X200930771Y-185043985D01*
X200930771Y-185043985D02*
X201002200Y-184972557D01*
X201002200Y-184972557D02*
X200930771Y-184901128D01*
X200930771Y-184901128D02*
X200930771Y-185043985D01*
X202287915Y-186329700D02*
X202145057Y-186401128D01*
X202145057Y-186401128D02*
X201859343Y-186401128D01*
X201859343Y-186401128D02*
X201716486Y-186329700D01*
X201716486Y-186329700D02*
X201645057Y-186258271D01*
X201645057Y-186258271D02*
X201573629Y-186115414D01*
X201573629Y-186115414D02*
X201573629Y-185686842D01*
X201573629Y-185686842D02*
X201645057Y-185543985D01*
X201645057Y-185543985D02*
X201716486Y-185472557D01*
X201716486Y-185472557D02*
X201859343Y-185401128D01*
X201859343Y-185401128D02*
X202145057Y-185401128D01*
X202145057Y-185401128D02*
X202287915Y-185472557D01*
X203573629Y-186401128D02*
X203573629Y-185615414D01*
X203573629Y-185615414D02*
X203502200Y-185472557D01*
X203502200Y-185472557D02*
X203359343Y-185401128D01*
X203359343Y-185401128D02*
X203073629Y-185401128D01*
X203073629Y-185401128D02*
X202930771Y-185472557D01*
X203573629Y-186329700D02*
X203430771Y-186401128D01*
X203430771Y-186401128D02*
X203073629Y-186401128D01*
X203073629Y-186401128D02*
X202930771Y-186329700D01*
X202930771Y-186329700D02*
X202859343Y-186186842D01*
X202859343Y-186186842D02*
X202859343Y-186043985D01*
X202859343Y-186043985D02*
X202930771Y-185901128D01*
X202930771Y-185901128D02*
X203073629Y-185829700D01*
X203073629Y-185829700D02*
X203430771Y-185829700D01*
X203430771Y-185829700D02*
X203573629Y-185758271D01*
X204930772Y-186401128D02*
X204930772Y-184901128D01*
X204930772Y-186329700D02*
X204787914Y-186401128D01*
X204787914Y-186401128D02*
X204502200Y-186401128D01*
X204502200Y-186401128D02*
X204359343Y-186329700D01*
X204359343Y-186329700D02*
X204287914Y-186258271D01*
X204287914Y-186258271D02*
X204216486Y-186115414D01*
X204216486Y-186115414D02*
X204216486Y-185686842D01*
X204216486Y-185686842D02*
X204287914Y-185543985D01*
X204287914Y-185543985D02*
X204359343Y-185472557D01*
X204359343Y-185472557D02*
X204502200Y-185401128D01*
X204502200Y-185401128D02*
X204787914Y-185401128D01*
X204787914Y-185401128D02*
X204930772Y-185472557D01*
X205287915Y-186543985D02*
X206430772Y-186543985D01*
X206787914Y-185401128D02*
X206787914Y-186901128D01*
X206787914Y-185472557D02*
X206930772Y-185401128D01*
X206930772Y-185401128D02*
X207216486Y-185401128D01*
X207216486Y-185401128D02*
X207359343Y-185472557D01*
X207359343Y-185472557D02*
X207430772Y-185543985D01*
X207430772Y-185543985D02*
X207502200Y-185686842D01*
X207502200Y-185686842D02*
X207502200Y-186115414D01*
X207502200Y-186115414D02*
X207430772Y-186258271D01*
X207430772Y-186258271D02*
X207359343Y-186329700D01*
X207359343Y-186329700D02*
X207216486Y-186401128D01*
X207216486Y-186401128D02*
X206930772Y-186401128D01*
X206930772Y-186401128D02*
X206787914Y-186329700D01*
X208787915Y-186329700D02*
X208645057Y-186401128D01*
X208645057Y-186401128D02*
X208359343Y-186401128D01*
X208359343Y-186401128D02*
X208216486Y-186329700D01*
X208216486Y-186329700D02*
X208145057Y-186258271D01*
X208145057Y-186258271D02*
X208073629Y-186115414D01*
X208073629Y-186115414D02*
X208073629Y-185686842D01*
X208073629Y-185686842D02*
X208145057Y-185543985D01*
X208145057Y-185543985D02*
X208216486Y-185472557D01*
X208216486Y-185472557D02*
X208359343Y-185401128D01*
X208359343Y-185401128D02*
X208645057Y-185401128D01*
X208645057Y-185401128D02*
X208787915Y-185472557D01*
X209430771Y-186401128D02*
X209430771Y-184901128D01*
X209430771Y-185472557D02*
X209573629Y-185401128D01*
X209573629Y-185401128D02*
X209859343Y-185401128D01*
X209859343Y-185401128D02*
X210002200Y-185472557D01*
X210002200Y-185472557D02*
X210073629Y-185543985D01*
X210073629Y-185543985D02*
X210145057Y-185686842D01*
X210145057Y-185686842D02*
X210145057Y-186115414D01*
X210145057Y-186115414D02*
X210073629Y-186258271D01*
X210073629Y-186258271D02*
X210002200Y-186329700D01*
X210002200Y-186329700D02*
X209859343Y-186401128D01*
X209859343Y-186401128D02*
X209573629Y-186401128D01*
X209573629Y-186401128D02*
X209430771Y-186329700D01*
D10*
D11*
X177002200Y-181507200D02*
X285002200Y-181507200D01*
D10*
D11*
X178287914Y-183629700D02*
X178502200Y-183701128D01*
X178502200Y-183701128D02*
X178859342Y-183701128D01*
X178859342Y-183701128D02*
X179002200Y-183629700D01*
X179002200Y-183629700D02*
X179073628Y-183558271D01*
X179073628Y-183558271D02*
X179145057Y-183415414D01*
X179145057Y-183415414D02*
X179145057Y-183272557D01*
X179145057Y-183272557D02*
X179073628Y-183129700D01*
X179073628Y-183129700D02*
X179002200Y-183058271D01*
X179002200Y-183058271D02*
X178859342Y-182986842D01*
X178859342Y-182986842D02*
X178573628Y-182915414D01*
X178573628Y-182915414D02*
X178430771Y-182843985D01*
X178430771Y-182843985D02*
X178359342Y-182772557D01*
X178359342Y-182772557D02*
X178287914Y-182629700D01*
X178287914Y-182629700D02*
X178287914Y-182486842D01*
X178287914Y-182486842D02*
X178359342Y-182343985D01*
X178359342Y-182343985D02*
X178430771Y-182272557D01*
X178430771Y-182272557D02*
X178573628Y-182201128D01*
X178573628Y-182201128D02*
X178930771Y-182201128D01*
X178930771Y-182201128D02*
X179145057Y-182272557D01*
X179787913Y-183701128D02*
X179787913Y-182201128D01*
X180430771Y-183701128D02*
X180430771Y-182915414D01*
X180430771Y-182915414D02*
X180359342Y-182772557D01*
X180359342Y-182772557D02*
X180216485Y-182701128D01*
X180216485Y-182701128D02*
X180002199Y-182701128D01*
X180002199Y-182701128D02*
X179859342Y-182772557D01*
X179859342Y-182772557D02*
X179787913Y-182843985D01*
X181716485Y-183629700D02*
X181573628Y-183701128D01*
X181573628Y-183701128D02*
X181287914Y-183701128D01*
X181287914Y-183701128D02*
X181145056Y-183629700D01*
X181145056Y-183629700D02*
X181073628Y-183486842D01*
X181073628Y-183486842D02*
X181073628Y-182915414D01*
X181073628Y-182915414D02*
X181145056Y-182772557D01*
X181145056Y-182772557D02*
X181287914Y-182701128D01*
X181287914Y-182701128D02*
X181573628Y-182701128D01*
X181573628Y-182701128D02*
X181716485Y-182772557D01*
X181716485Y-182772557D02*
X181787914Y-182915414D01*
X181787914Y-182915414D02*
X181787914Y-183058271D01*
X181787914Y-183058271D02*
X181073628Y-183201128D01*
X183002199Y-183629700D02*
X182859342Y-183701128D01*
X182859342Y-183701128D02*
X182573628Y-183701128D01*
X182573628Y-183701128D02*
X182430770Y-183629700D01*
X182430770Y-183629700D02*
X182359342Y-183486842D01*
X182359342Y-183486842D02*
X182359342Y-182915414D01*
X182359342Y-182915414D02*
X182430770Y-182772557D01*
X182430770Y-182772557D02*
X182573628Y-182701128D01*
X182573628Y-182701128D02*
X182859342Y-182701128D01*
X182859342Y-182701128D02*
X183002199Y-182772557D01*
X183002199Y-182772557D02*
X183073628Y-182915414D01*
X183073628Y-182915414D02*
X183073628Y-183058271D01*
X183073628Y-183058271D02*
X182359342Y-183201128D01*
X183502199Y-182701128D02*
X184073627Y-182701128D01*
X183716484Y-182201128D02*
X183716484Y-183486842D01*
X183716484Y-183486842D02*
X183787913Y-183629700D01*
X183787913Y-183629700D02*
X183930770Y-183701128D01*
X183930770Y-183701128D02*
X184073627Y-183701128D01*
X184573627Y-183558271D02*
X184645056Y-183629700D01*
X184645056Y-183629700D02*
X184573627Y-183701128D01*
X184573627Y-183701128D02*
X184502199Y-183629700D01*
X184502199Y-183629700D02*
X184573627Y-183558271D01*
X184573627Y-183558271D02*
X184573627Y-183701128D01*
X184573627Y-182772557D02*
X184645056Y-182843985D01*
X184645056Y-182843985D02*
X184573627Y-182915414D01*
X184573627Y-182915414D02*
X184502199Y-182843985D01*
X184502199Y-182843985D02*
X184573627Y-182772557D01*
X184573627Y-182772557D02*
X184573627Y-182915414D01*
D10*
D12*
D10*
D11*
D10*
D11*
D10*
D11*
D10*
D11*
D10*
D11*
X197002200Y-191507200D02*
X197002200Y-194507200D01*
D10*
D11*
X261002200Y-191507200D02*
X261002200Y-198007200D01*
D14*
%TO.C,JP1*%
X93782866Y-82858810D02*
X93782866Y-83221667D01*
X93782866Y-83221667D02*
X93758675Y-83294239D01*
X93758675Y-83294239D02*
X93710294Y-83342620D01*
X93710294Y-83342620D02*
X93637723Y-83366810D01*
X93637723Y-83366810D02*
X93589342Y-83366810D01*
X94024771Y-83366810D02*
X94024771Y-82858810D01*
X94024771Y-82858810D02*
X94218295Y-82858810D01*
X94218295Y-82858810D02*
X94266676Y-82883000D01*
X94266676Y-82883000D02*
X94290866Y-82907191D01*
X94290866Y-82907191D02*
X94315057Y-82955572D01*
X94315057Y-82955572D02*
X94315057Y-83028143D01*
X94315057Y-83028143D02*
X94290866Y-83076524D01*
X94290866Y-83076524D02*
X94266676Y-83100715D01*
X94266676Y-83100715D02*
X94218295Y-83124905D01*
X94218295Y-83124905D02*
X94024771Y-83124905D01*
X94798866Y-83366810D02*
X94508580Y-83366810D01*
X94653723Y-83366810D02*
X94653723Y-82858810D01*
X94653723Y-82858810D02*
X94605342Y-82931381D01*
X94605342Y-82931381D02*
X94556961Y-82979762D01*
X94556961Y-82979762D02*
X94508580Y-83003953D01*
%TO.C,R2*%
X79567333Y-87989610D02*
X79397999Y-87747705D01*
X79277047Y-87989610D02*
X79277047Y-87481610D01*
X79277047Y-87481610D02*
X79470571Y-87481610D01*
X79470571Y-87481610D02*
X79518952Y-87505800D01*
X79518952Y-87505800D02*
X79543142Y-87529991D01*
X79543142Y-87529991D02*
X79567333Y-87578372D01*
X79567333Y-87578372D02*
X79567333Y-87650943D01*
X79567333Y-87650943D02*
X79543142Y-87699324D01*
X79543142Y-87699324D02*
X79518952Y-87723515D01*
X79518952Y-87723515D02*
X79470571Y-87747705D01*
X79470571Y-87747705D02*
X79277047Y-87747705D01*
X79760856Y-87529991D02*
X79785047Y-87505800D01*
X79785047Y-87505800D02*
X79833428Y-87481610D01*
X79833428Y-87481610D02*
X79954380Y-87481610D01*
X79954380Y-87481610D02*
X80002761Y-87505800D01*
X80002761Y-87505800D02*
X80026952Y-87529991D01*
X80026952Y-87529991D02*
X80051142Y-87578372D01*
X80051142Y-87578372D02*
X80051142Y-87626753D01*
X80051142Y-87626753D02*
X80026952Y-87699324D01*
X80026952Y-87699324D02*
X79736666Y-87989610D01*
X79736666Y-87989610D02*
X80051142Y-87989610D01*
%TO.C,J4*%
X93810666Y-106407010D02*
X93810666Y-106769867D01*
X93810666Y-106769867D02*
X93786475Y-106842439D01*
X93786475Y-106842439D02*
X93738094Y-106890820D01*
X93738094Y-106890820D02*
X93665523Y-106915010D01*
X93665523Y-106915010D02*
X93617142Y-106915010D01*
X94270285Y-106576343D02*
X94270285Y-106915010D01*
X94149333Y-106382820D02*
X94028380Y-106745677D01*
X94028380Y-106745677D02*
X94342857Y-106745677D01*
%TO.C,R3*%
X90057533Y-87938810D02*
X89888199Y-87696905D01*
X89767247Y-87938810D02*
X89767247Y-87430810D01*
X89767247Y-87430810D02*
X89960771Y-87430810D01*
X89960771Y-87430810D02*
X90009152Y-87455000D01*
X90009152Y-87455000D02*
X90033342Y-87479191D01*
X90033342Y-87479191D02*
X90057533Y-87527572D01*
X90057533Y-87527572D02*
X90057533Y-87600143D01*
X90057533Y-87600143D02*
X90033342Y-87648524D01*
X90033342Y-87648524D02*
X90009152Y-87672715D01*
X90009152Y-87672715D02*
X89960771Y-87696905D01*
X89960771Y-87696905D02*
X89767247Y-87696905D01*
X90226866Y-87430810D02*
X90541342Y-87430810D01*
X90541342Y-87430810D02*
X90372009Y-87624334D01*
X90372009Y-87624334D02*
X90444580Y-87624334D01*
X90444580Y-87624334D02*
X90492961Y-87648524D01*
X90492961Y-87648524D02*
X90517152Y-87672715D01*
X90517152Y-87672715D02*
X90541342Y-87721096D01*
X90541342Y-87721096D02*
X90541342Y-87842048D01*
X90541342Y-87842048D02*
X90517152Y-87890429D01*
X90517152Y-87890429D02*
X90492961Y-87914620D01*
X90492961Y-87914620D02*
X90444580Y-87938810D01*
X90444580Y-87938810D02*
X90299437Y-87938810D01*
X90299437Y-87938810D02*
X90251056Y-87914620D01*
X90251056Y-87914620D02*
X90226866Y-87890429D01*
%TO.C,J3*%
X77427010Y-101269333D02*
X77789867Y-101269333D01*
X77789867Y-101269333D02*
X77862439Y-101293524D01*
X77862439Y-101293524D02*
X77910820Y-101341905D01*
X77910820Y-101341905D02*
X77935010Y-101414476D01*
X77935010Y-101414476D02*
X77935010Y-101462857D01*
X77427010Y-101075809D02*
X77427010Y-100761333D01*
X77427010Y-100761333D02*
X77620534Y-100930666D01*
X77620534Y-100930666D02*
X77620534Y-100858095D01*
X77620534Y-100858095D02*
X77644724Y-100809714D01*
X77644724Y-100809714D02*
X77668915Y-100785523D01*
X77668915Y-100785523D02*
X77717296Y-100761333D01*
X77717296Y-100761333D02*
X77838248Y-100761333D01*
X77838248Y-100761333D02*
X77886629Y-100785523D01*
X77886629Y-100785523D02*
X77910820Y-100809714D01*
X77910820Y-100809714D02*
X77935010Y-100858095D01*
X77935010Y-100858095D02*
X77935010Y-101003238D01*
X77935010Y-101003238D02*
X77910820Y-101051619D01*
X77910820Y-101051619D02*
X77886629Y-101075809D01*
%TO.C,JP2*%
X78441266Y-83773210D02*
X78441266Y-84136067D01*
X78441266Y-84136067D02*
X78417075Y-84208639D01*
X78417075Y-84208639D02*
X78368694Y-84257020D01*
X78368694Y-84257020D02*
X78296123Y-84281210D01*
X78296123Y-84281210D02*
X78247742Y-84281210D01*
X78683171Y-84281210D02*
X78683171Y-83773210D01*
X78683171Y-83773210D02*
X78876695Y-83773210D01*
X78876695Y-83773210D02*
X78925076Y-83797400D01*
X78925076Y-83797400D02*
X78949266Y-83821591D01*
X78949266Y-83821591D02*
X78973457Y-83869972D01*
X78973457Y-83869972D02*
X78973457Y-83942543D01*
X78973457Y-83942543D02*
X78949266Y-83990924D01*
X78949266Y-83990924D02*
X78925076Y-84015115D01*
X78925076Y-84015115D02*
X78876695Y-84039305D01*
X78876695Y-84039305D02*
X78683171Y-84039305D01*
X79166980Y-83821591D02*
X79191171Y-83797400D01*
X79191171Y-83797400D02*
X79239552Y-83773210D01*
X79239552Y-83773210D02*
X79360504Y-83773210D01*
X79360504Y-83773210D02*
X79408885Y-83797400D01*
X79408885Y-83797400D02*
X79433076Y-83821591D01*
X79433076Y-83821591D02*
X79457266Y-83869972D01*
X79457266Y-83869972D02*
X79457266Y-83918353D01*
X79457266Y-83918353D02*
X79433076Y-83990924D01*
X79433076Y-83990924D02*
X79142790Y-84281210D01*
X79142790Y-84281210D02*
X79457266Y-84281210D01*
%TO.C,R5*%
X86145933Y-82858810D02*
X85976599Y-82616905D01*
X85855647Y-82858810D02*
X85855647Y-82350810D01*
X85855647Y-82350810D02*
X86049171Y-82350810D01*
X86049171Y-82350810D02*
X86097552Y-82375000D01*
X86097552Y-82375000D02*
X86121742Y-82399191D01*
X86121742Y-82399191D02*
X86145933Y-82447572D01*
X86145933Y-82447572D02*
X86145933Y-82520143D01*
X86145933Y-82520143D02*
X86121742Y-82568524D01*
X86121742Y-82568524D02*
X86097552Y-82592715D01*
X86097552Y-82592715D02*
X86049171Y-82616905D01*
X86049171Y-82616905D02*
X85855647Y-82616905D01*
X86605552Y-82350810D02*
X86363647Y-82350810D01*
X86363647Y-82350810D02*
X86339456Y-82592715D01*
X86339456Y-82592715D02*
X86363647Y-82568524D01*
X86363647Y-82568524D02*
X86412028Y-82544334D01*
X86412028Y-82544334D02*
X86532980Y-82544334D01*
X86532980Y-82544334D02*
X86581361Y-82568524D01*
X86581361Y-82568524D02*
X86605552Y-82592715D01*
X86605552Y-82592715D02*
X86629742Y-82641096D01*
X86629742Y-82641096D02*
X86629742Y-82762048D01*
X86629742Y-82762048D02*
X86605552Y-82810429D01*
X86605552Y-82810429D02*
X86581361Y-82834620D01*
X86581361Y-82834620D02*
X86532980Y-82858810D01*
X86532980Y-82858810D02*
X86412028Y-82858810D01*
X86412028Y-82858810D02*
X86363647Y-82834620D01*
X86363647Y-82834620D02*
X86339456Y-82810429D01*
%TO.C,R1*%
X85813833Y-85162610D02*
X85644499Y-84920705D01*
X85523547Y-85162610D02*
X85523547Y-84654610D01*
X85523547Y-84654610D02*
X85717071Y-84654610D01*
X85717071Y-84654610D02*
X85765452Y-84678800D01*
X85765452Y-84678800D02*
X85789642Y-84702991D01*
X85789642Y-84702991D02*
X85813833Y-84751372D01*
X85813833Y-84751372D02*
X85813833Y-84823943D01*
X85813833Y-84823943D02*
X85789642Y-84872324D01*
X85789642Y-84872324D02*
X85765452Y-84896515D01*
X85765452Y-84896515D02*
X85717071Y-84920705D01*
X85717071Y-84920705D02*
X85523547Y-84920705D01*
X86297642Y-85162610D02*
X86007356Y-85162610D01*
X86152499Y-85162610D02*
X86152499Y-84654610D01*
X86152499Y-84654610D02*
X86104118Y-84727181D01*
X86104118Y-84727181D02*
X86055737Y-84775562D01*
X86055737Y-84775562D02*
X86007356Y-84799753D01*
%TO.C,C1*%
X92673733Y-92894229D02*
X92649542Y-92918420D01*
X92649542Y-92918420D02*
X92576971Y-92942610D01*
X92576971Y-92942610D02*
X92528590Y-92942610D01*
X92528590Y-92942610D02*
X92456018Y-92918420D01*
X92456018Y-92918420D02*
X92407637Y-92870039D01*
X92407637Y-92870039D02*
X92383447Y-92821658D01*
X92383447Y-92821658D02*
X92359256Y-92724896D01*
X92359256Y-92724896D02*
X92359256Y-92652324D01*
X92359256Y-92652324D02*
X92383447Y-92555562D01*
X92383447Y-92555562D02*
X92407637Y-92507181D01*
X92407637Y-92507181D02*
X92456018Y-92458800D01*
X92456018Y-92458800D02*
X92528590Y-92434610D01*
X92528590Y-92434610D02*
X92576971Y-92434610D01*
X92576971Y-92434610D02*
X92649542Y-92458800D01*
X92649542Y-92458800D02*
X92673733Y-92482991D01*
X93157542Y-92942610D02*
X92867256Y-92942610D01*
X93012399Y-92942610D02*
X93012399Y-92434610D01*
X93012399Y-92434610D02*
X92964018Y-92507181D01*
X92964018Y-92507181D02*
X92915637Y-92555562D01*
X92915637Y-92555562D02*
X92867256Y-92579753D01*
%TO.C,J2*%
X75640666Y-83817010D02*
X75640666Y-84179867D01*
X75640666Y-84179867D02*
X75616475Y-84252439D01*
X75616475Y-84252439D02*
X75568094Y-84300820D01*
X75568094Y-84300820D02*
X75495523Y-84325010D01*
X75495523Y-84325010D02*
X75447142Y-84325010D01*
X75858380Y-83865391D02*
X75882571Y-83841200D01*
X75882571Y-83841200D02*
X75930952Y-83817010D01*
X75930952Y-83817010D02*
X76051904Y-83817010D01*
X76051904Y-83817010D02*
X76100285Y-83841200D01*
X76100285Y-83841200D02*
X76124476Y-83865391D01*
X76124476Y-83865391D02*
X76148666Y-83913772D01*
X76148666Y-83913772D02*
X76148666Y-83962153D01*
X76148666Y-83962153D02*
X76124476Y-84034724D01*
X76124476Y-84034724D02*
X75834190Y-84325010D01*
X75834190Y-84325010D02*
X76148666Y-84325010D01*
%TO.C,C3*%
X85307733Y-93072029D02*
X85283542Y-93096220D01*
X85283542Y-93096220D02*
X85210971Y-93120410D01*
X85210971Y-93120410D02*
X85162590Y-93120410D01*
X85162590Y-93120410D02*
X85090018Y-93096220D01*
X85090018Y-93096220D02*
X85041637Y-93047839D01*
X85041637Y-93047839D02*
X85017447Y-92999458D01*
X85017447Y-92999458D02*
X84993256Y-92902696D01*
X84993256Y-92902696D02*
X84993256Y-92830124D01*
X84993256Y-92830124D02*
X85017447Y-92733362D01*
X85017447Y-92733362D02*
X85041637Y-92684981D01*
X85041637Y-92684981D02*
X85090018Y-92636600D01*
X85090018Y-92636600D02*
X85162590Y-92612410D01*
X85162590Y-92612410D02*
X85210971Y-92612410D01*
X85210971Y-92612410D02*
X85283542Y-92636600D01*
X85283542Y-92636600D02*
X85307733Y-92660791D01*
X85477066Y-92612410D02*
X85791542Y-92612410D01*
X85791542Y-92612410D02*
X85622209Y-92805934D01*
X85622209Y-92805934D02*
X85694780Y-92805934D01*
X85694780Y-92805934D02*
X85743161Y-92830124D01*
X85743161Y-92830124D02*
X85767352Y-92854315D01*
X85767352Y-92854315D02*
X85791542Y-92902696D01*
X85791542Y-92902696D02*
X85791542Y-93023648D01*
X85791542Y-93023648D02*
X85767352Y-93072029D01*
X85767352Y-93072029D02*
X85743161Y-93096220D01*
X85743161Y-93096220D02*
X85694780Y-93120410D01*
X85694780Y-93120410D02*
X85549637Y-93120410D01*
X85549637Y-93120410D02*
X85501256Y-93096220D01*
X85501256Y-93096220D02*
X85477066Y-93072029D01*
%TO.C,U1*%
X91558552Y-88142010D02*
X91558552Y-88553248D01*
X91558552Y-88553248D02*
X91582742Y-88601629D01*
X91582742Y-88601629D02*
X91606933Y-88625820D01*
X91606933Y-88625820D02*
X91655314Y-88650010D01*
X91655314Y-88650010D02*
X91752076Y-88650010D01*
X91752076Y-88650010D02*
X91800457Y-88625820D01*
X91800457Y-88625820D02*
X91824647Y-88601629D01*
X91824647Y-88601629D02*
X91848838Y-88553248D01*
X91848838Y-88553248D02*
X91848838Y-88142010D01*
X92356837Y-88650010D02*
X92066551Y-88650010D01*
X92211694Y-88650010D02*
X92211694Y-88142010D01*
X92211694Y-88142010D02*
X92163313Y-88214581D01*
X92163313Y-88214581D02*
X92114932Y-88262962D01*
X92114932Y-88262962D02*
X92066551Y-88287153D01*
%TO.C,D1*%
X83442647Y-87811810D02*
X83442647Y-87303810D01*
X83442647Y-87303810D02*
X83563599Y-87303810D01*
X83563599Y-87303810D02*
X83636171Y-87328000D01*
X83636171Y-87328000D02*
X83684552Y-87376381D01*
X83684552Y-87376381D02*
X83708742Y-87424762D01*
X83708742Y-87424762D02*
X83732933Y-87521524D01*
X83732933Y-87521524D02*
X83732933Y-87594096D01*
X83732933Y-87594096D02*
X83708742Y-87690858D01*
X83708742Y-87690858D02*
X83684552Y-87739239D01*
X83684552Y-87739239D02*
X83636171Y-87787620D01*
X83636171Y-87787620D02*
X83563599Y-87811810D01*
X83563599Y-87811810D02*
X83442647Y-87811810D01*
X84216742Y-87811810D02*
X83926456Y-87811810D01*
X84071599Y-87811810D02*
X84071599Y-87303810D01*
X84071599Y-87303810D02*
X84023218Y-87376381D01*
X84023218Y-87376381D02*
X83974837Y-87424762D01*
X83974837Y-87424762D02*
X83926456Y-87448953D01*
%TO.C,C2*%
X80227733Y-93072029D02*
X80203542Y-93096220D01*
X80203542Y-93096220D02*
X80130971Y-93120410D01*
X80130971Y-93120410D02*
X80082590Y-93120410D01*
X80082590Y-93120410D02*
X80010018Y-93096220D01*
X80010018Y-93096220D02*
X79961637Y-93047839D01*
X79961637Y-93047839D02*
X79937447Y-92999458D01*
X79937447Y-92999458D02*
X79913256Y-92902696D01*
X79913256Y-92902696D02*
X79913256Y-92830124D01*
X79913256Y-92830124D02*
X79937447Y-92733362D01*
X79937447Y-92733362D02*
X79961637Y-92684981D01*
X79961637Y-92684981D02*
X80010018Y-92636600D01*
X80010018Y-92636600D02*
X80082590Y-92612410D01*
X80082590Y-92612410D02*
X80130971Y-92612410D01*
X80130971Y-92612410D02*
X80203542Y-92636600D01*
X80203542Y-92636600D02*
X80227733Y-92660791D01*
X80421256Y-92660791D02*
X80445447Y-92636600D01*
X80445447Y-92636600D02*
X80493828Y-92612410D01*
X80493828Y-92612410D02*
X80614780Y-92612410D01*
X80614780Y-92612410D02*
X80663161Y-92636600D01*
X80663161Y-92636600D02*
X80687352Y-92660791D01*
X80687352Y-92660791D02*
X80711542Y-92709172D01*
X80711542Y-92709172D02*
X80711542Y-92757553D01*
X80711542Y-92757553D02*
X80687352Y-92830124D01*
X80687352Y-92830124D02*
X80397066Y-93120410D01*
X80397066Y-93120410D02*
X80711542Y-93120410D01*
%TO.C,J1*%
X99853466Y-83951010D02*
X99853466Y-84313867D01*
X99853466Y-84313867D02*
X99829275Y-84386439D01*
X99829275Y-84386439D02*
X99780894Y-84434820D01*
X99780894Y-84434820D02*
X99708323Y-84459010D01*
X99708323Y-84459010D02*
X99659942Y-84459010D01*
X100361466Y-84459010D02*
X100071180Y-84459010D01*
X100216323Y-84459010D02*
X100216323Y-83951010D01*
X100216323Y-83951010D02*
X100167942Y-84023581D01*
X100167942Y-84023581D02*
X100119561Y-84071962D01*
X100119561Y-84071962D02*
X100071180Y-84096153D01*
%TO.C,R4*%
X94451733Y-87989610D02*
X94282399Y-87747705D01*
X94161447Y-87989610D02*
X94161447Y-87481610D01*
X94161447Y-87481610D02*
X94354971Y-87481610D01*
X94354971Y-87481610D02*
X94403352Y-87505800D01*
X94403352Y-87505800D02*
X94427542Y-87529991D01*
X94427542Y-87529991D02*
X94451733Y-87578372D01*
X94451733Y-87578372D02*
X94451733Y-87650943D01*
X94451733Y-87650943D02*
X94427542Y-87699324D01*
X94427542Y-87699324D02*
X94403352Y-87723515D01*
X94403352Y-87723515D02*
X94354971Y-87747705D01*
X94354971Y-87747705D02*
X94161447Y-87747705D01*
X94887161Y-87650943D02*
X94887161Y-87989610D01*
X94766209Y-87457420D02*
X94645256Y-87820277D01*
X94645256Y-87820277D02*
X94959733Y-87820277D01*
%TO.C,U2*%
X84624352Y-91596410D02*
X84624352Y-92007648D01*
X84624352Y-92007648D02*
X84648542Y-92056029D01*
X84648542Y-92056029D02*
X84672733Y-92080220D01*
X84672733Y-92080220D02*
X84721114Y-92104410D01*
X84721114Y-92104410D02*
X84817876Y-92104410D01*
X84817876Y-92104410D02*
X84866257Y-92080220D01*
X84866257Y-92080220D02*
X84890447Y-92056029D01*
X84890447Y-92056029D02*
X84914638Y-92007648D01*
X84914638Y-92007648D02*
X84914638Y-91596410D01*
X85132351Y-91644791D02*
X85156542Y-91620600D01*
X85156542Y-91620600D02*
X85204923Y-91596410D01*
X85204923Y-91596410D02*
X85325875Y-91596410D01*
X85325875Y-91596410D02*
X85374256Y-91620600D01*
X85374256Y-91620600D02*
X85398447Y-91644791D01*
X85398447Y-91644791D02*
X85422637Y-91693172D01*
X85422637Y-91693172D02*
X85422637Y-91741553D01*
X85422637Y-91741553D02*
X85398447Y-91814124D01*
X85398447Y-91814124D02*
X85108161Y-92104410D01*
X85108161Y-92104410D02*
X85422637Y-92104410D01*
D15*
%TO.C,JP1*%
X93263600Y-84817600D02*
X89163600Y-84817600D01*
X93263600Y-82817600D02*
X93263600Y-84817600D01*
X92813600Y-82317600D02*
X92213600Y-82317600D01*
X92513600Y-82617600D02*
X92813600Y-82317600D01*
X92513600Y-82617600D02*
X92213600Y-82317600D01*
X89163600Y-84817600D02*
X89163600Y-82817600D01*
X89163600Y-82817600D02*
X93263600Y-82817600D01*
%TO.C,R2*%
X81025276Y-85837500D02*
X81534724Y-85837500D01*
X81025276Y-86882500D02*
X81534724Y-86882500D01*
%TO.C,J4*%
X89920000Y-98290000D02*
X90940000Y-98290000D01*
X89920000Y-102540000D02*
X89920000Y-98290000D01*
X90940000Y-98290000D02*
X90940000Y-99890000D01*
X90940000Y-99890000D02*
X92220000Y-99890000D01*
X91640000Y-106110000D02*
X96320000Y-106110000D01*
X92220000Y-99890000D02*
X92220000Y-97000000D01*
X97020000Y-98290000D02*
X97020000Y-99890000D01*
X97020000Y-99890000D02*
X95740000Y-99890000D01*
X98040000Y-98290000D02*
X97020000Y-98290000D01*
X98040000Y-102540000D02*
X98040000Y-98290000D01*
%TO.C,R3*%
X90650924Y-87108700D02*
X90141476Y-87108700D01*
X90650924Y-86063700D02*
X90141476Y-86063700D01*
%TO.C,J3*%
X77920000Y-108185000D02*
X77920000Y-96015000D01*
X78770000Y-108185000D02*
X77920000Y-108185000D01*
X82290000Y-108185000D02*
X83140000Y-108185000D01*
X83140000Y-108185000D02*
X83140000Y-105860000D01*
X83140000Y-105860000D02*
X85530000Y-105860000D01*
X77920000Y-96015000D02*
X78770000Y-96015000D01*
X82290000Y-96015000D02*
X83140000Y-96015000D01*
X83140000Y-96015000D02*
X83140000Y-98340000D01*
%TO.C,JP2*%
X79880000Y-82820000D02*
X82680000Y-82820000D01*
X79880000Y-84820000D02*
X79880000Y-82820000D01*
X82680000Y-82820000D02*
X82680000Y-84820000D01*
X82680000Y-84820000D02*
X79880000Y-84820000D01*
%TO.C,R5*%
X85545976Y-83244300D02*
X86055424Y-83244300D01*
X85545976Y-84289300D02*
X86055424Y-84289300D01*
%TO.C,R1*%
X85643776Y-85835100D02*
X86153224Y-85835100D01*
X85643776Y-86880100D02*
X86153224Y-86880100D01*
%TO.C,C1*%
X91694724Y-94502500D02*
X91185276Y-94502500D01*
X91694724Y-93457500D02*
X91185276Y-93457500D01*
%TO.C,J2*%
X72540000Y-85090000D02*
X73810000Y-85090000D01*
X72540000Y-86360000D02*
X72540000Y-85090000D01*
X74852929Y-88520000D02*
X75250000Y-88520000D01*
X74852929Y-89280000D02*
X75250000Y-89280000D01*
X74852929Y-91060000D02*
X75250000Y-91060000D01*
X74852929Y-91820000D02*
X75250000Y-91820000D01*
X74852929Y-93600000D02*
X75250000Y-93600000D01*
X74852929Y-94360000D02*
X75250000Y-94360000D01*
X74920000Y-85980000D02*
X75250000Y-85980000D01*
X74920000Y-86740000D02*
X75250000Y-86740000D01*
X75250000Y-85030000D02*
X75250000Y-95310000D01*
X75250000Y-87630000D02*
X77910000Y-87630000D01*
X75250000Y-90170000D02*
X77910000Y-90170000D01*
X75250000Y-92710000D02*
X77910000Y-92710000D01*
X75250000Y-95310000D02*
X77910000Y-95310000D01*
X75460000Y-88520000D02*
X75790000Y-88520000D01*
X75460000Y-89280000D02*
X75790000Y-89280000D01*
X77910000Y-85030000D02*
X75250000Y-85030000D01*
X77910000Y-91440000D02*
X77910000Y-85030000D01*
X77910000Y-95310000D02*
X77910000Y-91440000D01*
%TO.C,C3*%
X86614724Y-94502500D02*
X86105276Y-94502500D01*
X86614724Y-93457500D02*
X86105276Y-93457500D01*
%TO.C,U1*%
X89650200Y-91176000D02*
X91650200Y-91176000D01*
X90650200Y-88956000D02*
X91650200Y-88956000D01*
%TO.C,D1*%
X82015000Y-88040000D02*
X80545000Y-88040000D01*
X80545000Y-88040000D02*
X80545000Y-90500000D01*
X82015000Y-90500000D02*
X82015000Y-88040000D01*
%TO.C,C2*%
X81534724Y-94502500D02*
X81025276Y-94502500D01*
X81534724Y-93457500D02*
X81025276Y-93457500D01*
%TO.C,J1*%
X103292800Y-95654000D02*
X102022800Y-95654000D01*
X103292800Y-94384000D02*
X103292800Y-95654000D01*
X100979871Y-92224000D02*
X100582800Y-92224000D01*
X100979871Y-91464000D02*
X100582800Y-91464000D01*
X100979871Y-89684000D02*
X100582800Y-89684000D01*
X100979871Y-88924000D02*
X100582800Y-88924000D01*
X100979871Y-87144000D02*
X100582800Y-87144000D01*
X100979871Y-86384000D02*
X100582800Y-86384000D01*
X100912800Y-94764000D02*
X100582800Y-94764000D01*
X100912800Y-94004000D02*
X100582800Y-94004000D01*
X100582800Y-95714000D02*
X100582800Y-85434000D01*
X100582800Y-93114000D02*
X97922800Y-93114000D01*
X100582800Y-90574000D02*
X97922800Y-90574000D01*
X100582800Y-88034000D02*
X97922800Y-88034000D01*
X100582800Y-85434000D02*
X97922800Y-85434000D01*
X100372800Y-92224000D02*
X100042800Y-92224000D01*
X100372800Y-91464000D02*
X100042800Y-91464000D01*
X97922800Y-95714000D02*
X100582800Y-95714000D01*
X97922800Y-89304000D02*
X97922800Y-95714000D01*
X97922800Y-85434000D02*
X97922800Y-89304000D01*
%TO.C,R4*%
X94562524Y-87108700D02*
X94053076Y-87108700D01*
X94562524Y-86063700D02*
X94053076Y-86063700D01*
%TO.C,U2*%
X84957500Y-88090000D02*
X83157500Y-88090000D01*
X84957500Y-88090000D02*
X85757500Y-88090000D01*
X84957500Y-91210000D02*
X84157500Y-91210000D01*
X84957500Y-91210000D02*
X85757500Y-91210000D01*
%TD*%
M02*
