%TF.GenerationSoftware,KiCad,Pcbnew,7.0.1*%
%TF.CreationDate,2023-09-22T10:38:57-04:00*%
%TF.ProjectId,PMIC_module,504d4943-5f6d-46f6-9475-6c652e6b6963,rev?*%
%TF.SameCoordinates,Original*%
%TF.FileFunction,Drillmap*%
%TF.FilePolarity,Positive*%
%FSLAX45Y45*%
G04 Gerber Fmt 4.5, Leading zero omitted, Abs format (unit mm)*
G04 Created by KiCad (PCBNEW 7.0.1) date 2023-09-22 10:38:57*
%MOMM*%
%LPD*%
G01*
G04 APERTURE LIST*
%ADD10C,0.100000*%
%ADD11C,0.200000*%
G04 APERTURE END LIST*
D10*
X10192780Y-8026160D02*
X10192780Y-10812540D01*
X10065780Y-10939540D02*
G75*
G03*
X10192780Y-10812540I0J127000D01*
G01*
X7378460Y-10812540D02*
G75*
G03*
X7505460Y-10939540I127000J0D01*
G01*
X7505460Y-7899160D02*
X10065780Y-7899160D01*
X7505460Y-7899160D02*
G75*
G03*
X7378460Y-8026160I0J-127000D01*
G01*
X10065780Y-10939540D02*
X7505460Y-10939540D01*
X7378460Y-10812540D02*
X7378460Y-8026160D01*
X10192780Y-8026160D02*
G75*
G03*
X10065780Y-7899160I-127000J0D01*
G01*
D11*
X7621079Y-11257064D02*
X7621079Y-11057064D01*
X7621079Y-11057064D02*
X7668698Y-11057064D01*
X7668698Y-11057064D02*
X7697269Y-11066588D01*
X7697269Y-11066588D02*
X7716317Y-11085635D01*
X7716317Y-11085635D02*
X7725841Y-11104683D01*
X7725841Y-11104683D02*
X7735365Y-11142778D01*
X7735365Y-11142778D02*
X7735365Y-11171350D01*
X7735365Y-11171350D02*
X7725841Y-11209445D01*
X7725841Y-11209445D02*
X7716317Y-11228492D01*
X7716317Y-11228492D02*
X7697269Y-11247540D01*
X7697269Y-11247540D02*
X7668698Y-11257064D01*
X7668698Y-11257064D02*
X7621079Y-11257064D01*
X7821079Y-11257064D02*
X7821079Y-11123730D01*
X7821079Y-11161826D02*
X7830603Y-11142778D01*
X7830603Y-11142778D02*
X7840127Y-11133254D01*
X7840127Y-11133254D02*
X7859174Y-11123730D01*
X7859174Y-11123730D02*
X7878222Y-11123730D01*
X7944888Y-11257064D02*
X7944888Y-11123730D01*
X7944888Y-11057064D02*
X7935365Y-11066588D01*
X7935365Y-11066588D02*
X7944888Y-11076111D01*
X7944888Y-11076111D02*
X7954412Y-11066588D01*
X7954412Y-11066588D02*
X7944888Y-11057064D01*
X7944888Y-11057064D02*
X7944888Y-11076111D01*
X8068698Y-11257064D02*
X8049650Y-11247540D01*
X8049650Y-11247540D02*
X8040127Y-11228492D01*
X8040127Y-11228492D02*
X8040127Y-11057064D01*
X8173460Y-11257064D02*
X8154412Y-11247540D01*
X8154412Y-11247540D02*
X8144888Y-11228492D01*
X8144888Y-11228492D02*
X8144888Y-11057064D01*
X8402031Y-11257064D02*
X8402031Y-11057064D01*
X8402031Y-11057064D02*
X8468698Y-11199921D01*
X8468698Y-11199921D02*
X8535365Y-11057064D01*
X8535365Y-11057064D02*
X8535365Y-11257064D01*
X8716317Y-11257064D02*
X8716317Y-11152302D01*
X8716317Y-11152302D02*
X8706793Y-11133254D01*
X8706793Y-11133254D02*
X8687746Y-11123730D01*
X8687746Y-11123730D02*
X8649650Y-11123730D01*
X8649650Y-11123730D02*
X8630603Y-11133254D01*
X8716317Y-11247540D02*
X8697270Y-11257064D01*
X8697270Y-11257064D02*
X8649650Y-11257064D01*
X8649650Y-11257064D02*
X8630603Y-11247540D01*
X8630603Y-11247540D02*
X8621079Y-11228492D01*
X8621079Y-11228492D02*
X8621079Y-11209445D01*
X8621079Y-11209445D02*
X8630603Y-11190397D01*
X8630603Y-11190397D02*
X8649650Y-11180873D01*
X8649650Y-11180873D02*
X8697270Y-11180873D01*
X8697270Y-11180873D02*
X8716317Y-11171350D01*
X8811555Y-11123730D02*
X8811555Y-11323730D01*
X8811555Y-11133254D02*
X8830603Y-11123730D01*
X8830603Y-11123730D02*
X8868698Y-11123730D01*
X8868698Y-11123730D02*
X8887746Y-11133254D01*
X8887746Y-11133254D02*
X8897270Y-11142778D01*
X8897270Y-11142778D02*
X8906793Y-11161826D01*
X8906793Y-11161826D02*
X8906793Y-11218968D01*
X8906793Y-11218968D02*
X8897270Y-11238016D01*
X8897270Y-11238016D02*
X8887746Y-11247540D01*
X8887746Y-11247540D02*
X8868698Y-11257064D01*
X8868698Y-11257064D02*
X8830603Y-11257064D01*
X8830603Y-11257064D02*
X8811555Y-11247540D01*
X8992508Y-11238016D02*
X9002031Y-11247540D01*
X9002031Y-11247540D02*
X8992508Y-11257064D01*
X8992508Y-11257064D02*
X8982984Y-11247540D01*
X8982984Y-11247540D02*
X8992508Y-11238016D01*
X8992508Y-11238016D02*
X8992508Y-11257064D01*
X8992508Y-11133254D02*
X9002031Y-11142778D01*
X9002031Y-11142778D02*
X8992508Y-11152302D01*
X8992508Y-11152302D02*
X8982984Y-11142778D01*
X8982984Y-11142778D02*
X8992508Y-11133254D01*
X8992508Y-11133254D02*
X8992508Y-11152302D01*
M02*
