%TF.GenerationSoftware,KiCad,Pcbnew,7.0.1*%
%TF.CreationDate,2023-09-22T10:38:57-04:00*%
%TF.ProjectId,PMIC_module,504d4943-5f6d-46f6-9475-6c652e6b6963,rev?*%
%TF.SameCoordinates,Original*%
%TF.FileFunction,Drillmap*%
%TF.FilePolarity,Positive*%
%FSLAX45Y45*%
G04 Gerber Fmt 4.5, Leading zero omitted, Abs format (unit mm)*
G04 Created by KiCad (PCBNEW 7.0.1) date 2023-09-22 10:38:57*
%MOMM*%
%LPD*%
G01*
G04 APERTURE LIST*
%ADD10C,0.100000*%
%ADD11C,0.200000*%
%ADD12C,0.040000*%
%ADD13C,0.076200*%
G04 APERTURE END LIST*
D10*
X10192780Y-8026160D02*
X10192780Y-10812540D01*
X10065780Y-10939540D02*
G75*
G03*
X10192780Y-10812540I0J127000D01*
G01*
X7378460Y-10812540D02*
G75*
G03*
X7505460Y-10939540I127000J0D01*
G01*
X7505460Y-7899160D02*
X10065780Y-7899160D01*
X7505460Y-7899160D02*
G75*
G03*
X7378460Y-8026160I0J-127000D01*
G01*
X10065780Y-10939540D02*
X7505460Y-10939540D01*
X7378460Y-10812540D02*
X7378460Y-8026160D01*
X10192780Y-8026160D02*
G75*
G03*
X10065780Y-7899160I-127000J0D01*
G01*
D11*
D12*
X8343980Y-8616000D02*
X8383980Y-8656000D01*
X8383980Y-8616000D02*
X8343980Y-8656000D01*
X8762875Y-8440295D02*
X8802875Y-8480295D01*
X8802875Y-8440295D02*
X8762875Y-8480295D01*
X8798640Y-9095820D02*
X8838640Y-9135820D01*
X8838640Y-9095820D02*
X8798640Y-9135820D01*
X8831660Y-8801180D02*
X8871660Y-8841180D01*
X8871660Y-8801180D02*
X8831660Y-8841180D01*
X8867220Y-9372680D02*
X8907220Y-9412680D01*
X8907220Y-9372680D02*
X8867220Y-9412680D01*
X9326960Y-9131380D02*
X9366960Y-9171380D01*
X9366960Y-9131380D02*
X9326960Y-9171380D01*
X9443800Y-9382840D02*
X9483800Y-9422840D01*
X9483800Y-9382840D02*
X9443800Y-9422840D01*
X9661300Y-9432700D02*
X9701300Y-9472700D01*
X9701300Y-9432700D02*
X9661300Y-9472700D01*
X9850200Y-9509840D02*
X9890200Y-9549840D01*
X9890200Y-9509840D02*
X9850200Y-9549840D01*
D13*
X7619100Y-8636000D02*
G75*
G03*
X7619100Y-8636000I-38100J0D01*
G01*
X7619100Y-8890000D02*
G75*
G03*
X7619100Y-8890000I-38100J0D01*
G01*
X7619100Y-9144000D02*
G75*
G03*
X7619100Y-9144000I-38100J0D01*
G01*
X7619100Y-9398000D02*
G75*
G03*
X7619100Y-9398000I-38100J0D01*
G01*
X10040380Y-8676400D02*
G75*
G03*
X10040380Y-8676400I-38100J0D01*
G01*
X10040380Y-8930400D02*
G75*
G03*
X10040380Y-8930400I-38100J0D01*
G01*
X10040380Y-9184400D02*
G75*
G03*
X10040380Y-9184400I-38100J0D01*
G01*
X10040380Y-9438400D02*
G75*
G03*
X10040380Y-9438400I-38100J0D01*
G01*
D10*
X7381000Y-8586000D02*
X7381000Y-8686000D01*
X7331000Y-8636000D02*
X7431000Y-8636000D01*
X7381000Y-8840000D02*
X7381000Y-8940000D01*
X7331000Y-8890000D02*
X7431000Y-8890000D01*
X7381000Y-9094000D02*
X7381000Y-9194000D01*
X7331000Y-9144000D02*
X7431000Y-9144000D01*
X7381000Y-9348000D02*
X7381000Y-9448000D01*
X7331000Y-9398000D02*
X7431000Y-9398000D01*
X10202280Y-8626400D02*
X10202280Y-8726400D01*
X10152280Y-8676400D02*
X10252280Y-8676400D01*
X10202280Y-8880400D02*
X10202280Y-8980400D01*
X10152280Y-8930400D02*
X10252280Y-8930400D01*
X10202280Y-9134400D02*
X10202280Y-9234400D01*
X10152280Y-9184400D02*
X10252280Y-9184400D01*
X10202280Y-9388400D02*
X10202280Y-9488400D01*
X10152280Y-9438400D02*
X10252280Y-9438400D01*
D11*
X7621079Y-11257064D02*
X7621079Y-11057064D01*
X7621079Y-11057064D02*
X7668698Y-11057064D01*
X7668698Y-11057064D02*
X7697269Y-11066588D01*
X7697269Y-11066588D02*
X7716317Y-11085635D01*
X7716317Y-11085635D02*
X7725841Y-11104683D01*
X7725841Y-11104683D02*
X7735365Y-11142778D01*
X7735365Y-11142778D02*
X7735365Y-11171350D01*
X7735365Y-11171350D02*
X7725841Y-11209445D01*
X7725841Y-11209445D02*
X7716317Y-11228492D01*
X7716317Y-11228492D02*
X7697269Y-11247540D01*
X7697269Y-11247540D02*
X7668698Y-11257064D01*
X7668698Y-11257064D02*
X7621079Y-11257064D01*
X7821079Y-11257064D02*
X7821079Y-11123730D01*
X7821079Y-11161826D02*
X7830603Y-11142778D01*
X7830603Y-11142778D02*
X7840127Y-11133254D01*
X7840127Y-11133254D02*
X7859174Y-11123730D01*
X7859174Y-11123730D02*
X7878222Y-11123730D01*
X7944888Y-11257064D02*
X7944888Y-11123730D01*
X7944888Y-11057064D02*
X7935365Y-11066588D01*
X7935365Y-11066588D02*
X7944888Y-11076111D01*
X7944888Y-11076111D02*
X7954412Y-11066588D01*
X7954412Y-11066588D02*
X7944888Y-11057064D01*
X7944888Y-11057064D02*
X7944888Y-11076111D01*
X8068698Y-11257064D02*
X8049650Y-11247540D01*
X8049650Y-11247540D02*
X8040127Y-11228492D01*
X8040127Y-11228492D02*
X8040127Y-11057064D01*
X8173460Y-11257064D02*
X8154412Y-11247540D01*
X8154412Y-11247540D02*
X8144888Y-11228492D01*
X8144888Y-11228492D02*
X8144888Y-11057064D01*
X8402031Y-11257064D02*
X8402031Y-11057064D01*
X8402031Y-11057064D02*
X8468698Y-11199921D01*
X8468698Y-11199921D02*
X8535365Y-11057064D01*
X8535365Y-11057064D02*
X8535365Y-11257064D01*
X8716317Y-11257064D02*
X8716317Y-11152302D01*
X8716317Y-11152302D02*
X8706793Y-11133254D01*
X8706793Y-11133254D02*
X8687746Y-11123730D01*
X8687746Y-11123730D02*
X8649650Y-11123730D01*
X8649650Y-11123730D02*
X8630603Y-11133254D01*
X8716317Y-11247540D02*
X8697270Y-11257064D01*
X8697270Y-11257064D02*
X8649650Y-11257064D01*
X8649650Y-11257064D02*
X8630603Y-11247540D01*
X8630603Y-11247540D02*
X8621079Y-11228492D01*
X8621079Y-11228492D02*
X8621079Y-11209445D01*
X8621079Y-11209445D02*
X8630603Y-11190397D01*
X8630603Y-11190397D02*
X8649650Y-11180873D01*
X8649650Y-11180873D02*
X8697270Y-11180873D01*
X8697270Y-11180873D02*
X8716317Y-11171350D01*
X8811555Y-11123730D02*
X8811555Y-11323730D01*
X8811555Y-11133254D02*
X8830603Y-11123730D01*
X8830603Y-11123730D02*
X8868698Y-11123730D01*
X8868698Y-11123730D02*
X8887746Y-11133254D01*
X8887746Y-11133254D02*
X8897270Y-11142778D01*
X8897270Y-11142778D02*
X8906793Y-11161826D01*
X8906793Y-11161826D02*
X8906793Y-11218968D01*
X8906793Y-11218968D02*
X8897270Y-11238016D01*
X8897270Y-11238016D02*
X8887746Y-11247540D01*
X8887746Y-11247540D02*
X8868698Y-11257064D01*
X8868698Y-11257064D02*
X8830603Y-11257064D01*
X8830603Y-11257064D02*
X8811555Y-11247540D01*
X8992508Y-11238016D02*
X9002031Y-11247540D01*
X9002031Y-11247540D02*
X8992508Y-11257064D01*
X8992508Y-11257064D02*
X8982984Y-11247540D01*
X8982984Y-11247540D02*
X8992508Y-11238016D01*
X8992508Y-11238016D02*
X8992508Y-11257064D01*
X8992508Y-11133254D02*
X9002031Y-11142778D01*
X9002031Y-11142778D02*
X8992508Y-11152302D01*
X8992508Y-11152302D02*
X8982984Y-11142778D01*
X8982984Y-11142778D02*
X8992508Y-11133254D01*
X8992508Y-11133254D02*
X8992508Y-11152302D01*
D12*
X7333460Y-11564540D02*
X7373460Y-11604540D01*
X7373460Y-11564540D02*
X7333460Y-11604540D01*
D11*
X7659174Y-11477064D02*
X7678222Y-11477064D01*
X7678222Y-11477064D02*
X7697269Y-11486588D01*
X7697269Y-11486588D02*
X7706793Y-11496111D01*
X7706793Y-11496111D02*
X7716317Y-11515159D01*
X7716317Y-11515159D02*
X7725841Y-11553254D01*
X7725841Y-11553254D02*
X7725841Y-11600873D01*
X7725841Y-11600873D02*
X7716317Y-11638968D01*
X7716317Y-11638968D02*
X7706793Y-11658016D01*
X7706793Y-11658016D02*
X7697269Y-11667540D01*
X7697269Y-11667540D02*
X7678222Y-11677064D01*
X7678222Y-11677064D02*
X7659174Y-11677064D01*
X7659174Y-11677064D02*
X7640127Y-11667540D01*
X7640127Y-11667540D02*
X7630603Y-11658016D01*
X7630603Y-11658016D02*
X7621079Y-11638968D01*
X7621079Y-11638968D02*
X7611555Y-11600873D01*
X7611555Y-11600873D02*
X7611555Y-11553254D01*
X7611555Y-11553254D02*
X7621079Y-11515159D01*
X7621079Y-11515159D02*
X7630603Y-11496111D01*
X7630603Y-11496111D02*
X7640127Y-11486588D01*
X7640127Y-11486588D02*
X7659174Y-11477064D01*
X7811555Y-11658016D02*
X7821079Y-11667540D01*
X7821079Y-11667540D02*
X7811555Y-11677064D01*
X7811555Y-11677064D02*
X7802031Y-11667540D01*
X7802031Y-11667540D02*
X7811555Y-11658016D01*
X7811555Y-11658016D02*
X7811555Y-11677064D01*
X7992508Y-11543730D02*
X7992508Y-11677064D01*
X7944888Y-11467540D02*
X7897269Y-11610397D01*
X7897269Y-11610397D02*
X8021079Y-11610397D01*
X8135365Y-11477064D02*
X8154412Y-11477064D01*
X8154412Y-11477064D02*
X8173460Y-11486588D01*
X8173460Y-11486588D02*
X8182984Y-11496111D01*
X8182984Y-11496111D02*
X8192508Y-11515159D01*
X8192508Y-11515159D02*
X8202031Y-11553254D01*
X8202031Y-11553254D02*
X8202031Y-11600873D01*
X8202031Y-11600873D02*
X8192508Y-11638968D01*
X8192508Y-11638968D02*
X8182984Y-11658016D01*
X8182984Y-11658016D02*
X8173460Y-11667540D01*
X8173460Y-11667540D02*
X8154412Y-11677064D01*
X8154412Y-11677064D02*
X8135365Y-11677064D01*
X8135365Y-11677064D02*
X8116317Y-11667540D01*
X8116317Y-11667540D02*
X8106793Y-11658016D01*
X8106793Y-11658016D02*
X8097269Y-11638968D01*
X8097269Y-11638968D02*
X8087746Y-11600873D01*
X8087746Y-11600873D02*
X8087746Y-11553254D01*
X8087746Y-11553254D02*
X8097269Y-11515159D01*
X8097269Y-11515159D02*
X8106793Y-11496111D01*
X8106793Y-11496111D02*
X8116317Y-11486588D01*
X8116317Y-11486588D02*
X8135365Y-11477064D01*
X8325841Y-11477064D02*
X8344889Y-11477064D01*
X8344889Y-11477064D02*
X8363936Y-11486588D01*
X8363936Y-11486588D02*
X8373460Y-11496111D01*
X8373460Y-11496111D02*
X8382984Y-11515159D01*
X8382984Y-11515159D02*
X8392508Y-11553254D01*
X8392508Y-11553254D02*
X8392508Y-11600873D01*
X8392508Y-11600873D02*
X8382984Y-11638968D01*
X8382984Y-11638968D02*
X8373460Y-11658016D01*
X8373460Y-11658016D02*
X8363936Y-11667540D01*
X8363936Y-11667540D02*
X8344889Y-11677064D01*
X8344889Y-11677064D02*
X8325841Y-11677064D01*
X8325841Y-11677064D02*
X8306793Y-11667540D01*
X8306793Y-11667540D02*
X8297269Y-11658016D01*
X8297269Y-11658016D02*
X8287746Y-11638968D01*
X8287746Y-11638968D02*
X8278222Y-11600873D01*
X8278222Y-11600873D02*
X8278222Y-11553254D01*
X8278222Y-11553254D02*
X8287746Y-11515159D01*
X8287746Y-11515159D02*
X8297269Y-11496111D01*
X8297269Y-11496111D02*
X8306793Y-11486588D01*
X8306793Y-11486588D02*
X8325841Y-11477064D01*
X8478222Y-11677064D02*
X8478222Y-11543730D01*
X8478222Y-11562778D02*
X8487746Y-11553254D01*
X8487746Y-11553254D02*
X8506793Y-11543730D01*
X8506793Y-11543730D02*
X8535365Y-11543730D01*
X8535365Y-11543730D02*
X8554412Y-11553254D01*
X8554412Y-11553254D02*
X8563936Y-11572302D01*
X8563936Y-11572302D02*
X8563936Y-11677064D01*
X8563936Y-11572302D02*
X8573460Y-11553254D01*
X8573460Y-11553254D02*
X8592508Y-11543730D01*
X8592508Y-11543730D02*
X8621079Y-11543730D01*
X8621079Y-11543730D02*
X8640127Y-11553254D01*
X8640127Y-11553254D02*
X8649651Y-11572302D01*
X8649651Y-11572302D02*
X8649651Y-11677064D01*
X8744889Y-11677064D02*
X8744889Y-11543730D01*
X8744889Y-11562778D02*
X8754412Y-11553254D01*
X8754412Y-11553254D02*
X8773460Y-11543730D01*
X8773460Y-11543730D02*
X8802032Y-11543730D01*
X8802032Y-11543730D02*
X8821079Y-11553254D01*
X8821079Y-11553254D02*
X8830603Y-11572302D01*
X8830603Y-11572302D02*
X8830603Y-11677064D01*
X8830603Y-11572302D02*
X8840127Y-11553254D01*
X8840127Y-11553254D02*
X8859174Y-11543730D01*
X8859174Y-11543730D02*
X8887746Y-11543730D01*
X8887746Y-11543730D02*
X8906793Y-11553254D01*
X8906793Y-11553254D02*
X8916317Y-11572302D01*
X8916317Y-11572302D02*
X8916317Y-11677064D01*
X9306793Y-11467540D02*
X9135365Y-11724683D01*
X9563936Y-11477064D02*
X9582984Y-11477064D01*
X9582984Y-11477064D02*
X9602032Y-11486588D01*
X9602032Y-11486588D02*
X9611555Y-11496111D01*
X9611555Y-11496111D02*
X9621079Y-11515159D01*
X9621079Y-11515159D02*
X9630603Y-11553254D01*
X9630603Y-11553254D02*
X9630603Y-11600873D01*
X9630603Y-11600873D02*
X9621079Y-11638968D01*
X9621079Y-11638968D02*
X9611555Y-11658016D01*
X9611555Y-11658016D02*
X9602032Y-11667540D01*
X9602032Y-11667540D02*
X9582984Y-11677064D01*
X9582984Y-11677064D02*
X9563936Y-11677064D01*
X9563936Y-11677064D02*
X9544889Y-11667540D01*
X9544889Y-11667540D02*
X9535365Y-11658016D01*
X9535365Y-11658016D02*
X9525841Y-11638968D01*
X9525841Y-11638968D02*
X9516317Y-11600873D01*
X9516317Y-11600873D02*
X9516317Y-11553254D01*
X9516317Y-11553254D02*
X9525841Y-11515159D01*
X9525841Y-11515159D02*
X9535365Y-11496111D01*
X9535365Y-11496111D02*
X9544889Y-11486588D01*
X9544889Y-11486588D02*
X9563936Y-11477064D01*
X9716317Y-11658016D02*
X9725841Y-11667540D01*
X9725841Y-11667540D02*
X9716317Y-11677064D01*
X9716317Y-11677064D02*
X9706794Y-11667540D01*
X9706794Y-11667540D02*
X9716317Y-11658016D01*
X9716317Y-11658016D02*
X9716317Y-11677064D01*
X9849651Y-11477064D02*
X9868698Y-11477064D01*
X9868698Y-11477064D02*
X9887746Y-11486588D01*
X9887746Y-11486588D02*
X9897270Y-11496111D01*
X9897270Y-11496111D02*
X9906794Y-11515159D01*
X9906794Y-11515159D02*
X9916317Y-11553254D01*
X9916317Y-11553254D02*
X9916317Y-11600873D01*
X9916317Y-11600873D02*
X9906794Y-11638968D01*
X9906794Y-11638968D02*
X9897270Y-11658016D01*
X9897270Y-11658016D02*
X9887746Y-11667540D01*
X9887746Y-11667540D02*
X9868698Y-11677064D01*
X9868698Y-11677064D02*
X9849651Y-11677064D01*
X9849651Y-11677064D02*
X9830603Y-11667540D01*
X9830603Y-11667540D02*
X9821079Y-11658016D01*
X9821079Y-11658016D02*
X9811555Y-11638968D01*
X9811555Y-11638968D02*
X9802032Y-11600873D01*
X9802032Y-11600873D02*
X9802032Y-11553254D01*
X9802032Y-11553254D02*
X9811555Y-11515159D01*
X9811555Y-11515159D02*
X9821079Y-11496111D01*
X9821079Y-11496111D02*
X9830603Y-11486588D01*
X9830603Y-11486588D02*
X9849651Y-11477064D01*
X10106794Y-11677064D02*
X9992508Y-11677064D01*
X10049651Y-11677064D02*
X10049651Y-11477064D01*
X10049651Y-11477064D02*
X10030603Y-11505635D01*
X10030603Y-11505635D02*
X10011555Y-11524683D01*
X10011555Y-11524683D02*
X9992508Y-11534207D01*
X10287746Y-11477064D02*
X10192508Y-11477064D01*
X10192508Y-11477064D02*
X10182984Y-11572302D01*
X10182984Y-11572302D02*
X10192508Y-11562778D01*
X10192508Y-11562778D02*
X10211555Y-11553254D01*
X10211555Y-11553254D02*
X10259175Y-11553254D01*
X10259175Y-11553254D02*
X10278222Y-11562778D01*
X10278222Y-11562778D02*
X10287746Y-11572302D01*
X10287746Y-11572302D02*
X10297270Y-11591349D01*
X10297270Y-11591349D02*
X10297270Y-11638968D01*
X10297270Y-11638968D02*
X10287746Y-11658016D01*
X10287746Y-11658016D02*
X10278222Y-11667540D01*
X10278222Y-11667540D02*
X10259175Y-11677064D01*
X10259175Y-11677064D02*
X10211555Y-11677064D01*
X10211555Y-11677064D02*
X10192508Y-11667540D01*
X10192508Y-11667540D02*
X10182984Y-11658016D01*
X10363936Y-11477064D02*
X10497270Y-11477064D01*
X10497270Y-11477064D02*
X10411555Y-11677064D01*
X10563936Y-11477064D02*
X10563936Y-11515159D01*
X10640127Y-11477064D02*
X10640127Y-11515159D01*
X10935365Y-11753254D02*
X10925841Y-11743730D01*
X10925841Y-11743730D02*
X10906794Y-11715159D01*
X10906794Y-11715159D02*
X10897270Y-11696111D01*
X10897270Y-11696111D02*
X10887746Y-11667540D01*
X10887746Y-11667540D02*
X10878222Y-11619921D01*
X10878222Y-11619921D02*
X10878222Y-11581826D01*
X10878222Y-11581826D02*
X10887746Y-11534207D01*
X10887746Y-11534207D02*
X10897270Y-11505635D01*
X10897270Y-11505635D02*
X10906794Y-11486588D01*
X10906794Y-11486588D02*
X10925841Y-11458016D01*
X10925841Y-11458016D02*
X10935365Y-11448492D01*
X11021079Y-11677064D02*
X11059175Y-11677064D01*
X11059175Y-11677064D02*
X11078222Y-11667540D01*
X11078222Y-11667540D02*
X11087746Y-11658016D01*
X11087746Y-11658016D02*
X11106794Y-11629445D01*
X11106794Y-11629445D02*
X11116317Y-11591349D01*
X11116317Y-11591349D02*
X11116317Y-11515159D01*
X11116317Y-11515159D02*
X11106794Y-11496111D01*
X11106794Y-11496111D02*
X11097270Y-11486588D01*
X11097270Y-11486588D02*
X11078222Y-11477064D01*
X11078222Y-11477064D02*
X11040127Y-11477064D01*
X11040127Y-11477064D02*
X11021079Y-11486588D01*
X11021079Y-11486588D02*
X11011556Y-11496111D01*
X11011556Y-11496111D02*
X11002032Y-11515159D01*
X11002032Y-11515159D02*
X11002032Y-11562778D01*
X11002032Y-11562778D02*
X11011556Y-11581826D01*
X11011556Y-11581826D02*
X11021079Y-11591349D01*
X11021079Y-11591349D02*
X11040127Y-11600873D01*
X11040127Y-11600873D02*
X11078222Y-11600873D01*
X11078222Y-11600873D02*
X11097270Y-11591349D01*
X11097270Y-11591349D02*
X11106794Y-11581826D01*
X11106794Y-11581826D02*
X11116317Y-11562778D01*
X11354413Y-11677064D02*
X11354413Y-11477064D01*
X11440127Y-11677064D02*
X11440127Y-11572302D01*
X11440127Y-11572302D02*
X11430603Y-11553254D01*
X11430603Y-11553254D02*
X11411556Y-11543730D01*
X11411556Y-11543730D02*
X11382984Y-11543730D01*
X11382984Y-11543730D02*
X11363936Y-11553254D01*
X11363936Y-11553254D02*
X11354413Y-11562778D01*
X11563936Y-11677064D02*
X11544889Y-11667540D01*
X11544889Y-11667540D02*
X11535365Y-11658016D01*
X11535365Y-11658016D02*
X11525841Y-11638968D01*
X11525841Y-11638968D02*
X11525841Y-11581826D01*
X11525841Y-11581826D02*
X11535365Y-11562778D01*
X11535365Y-11562778D02*
X11544889Y-11553254D01*
X11544889Y-11553254D02*
X11563936Y-11543730D01*
X11563936Y-11543730D02*
X11592508Y-11543730D01*
X11592508Y-11543730D02*
X11611556Y-11553254D01*
X11611556Y-11553254D02*
X11621079Y-11562778D01*
X11621079Y-11562778D02*
X11630603Y-11581826D01*
X11630603Y-11581826D02*
X11630603Y-11638968D01*
X11630603Y-11638968D02*
X11621079Y-11658016D01*
X11621079Y-11658016D02*
X11611556Y-11667540D01*
X11611556Y-11667540D02*
X11592508Y-11677064D01*
X11592508Y-11677064D02*
X11563936Y-11677064D01*
X11744889Y-11677064D02*
X11725841Y-11667540D01*
X11725841Y-11667540D02*
X11716317Y-11648492D01*
X11716317Y-11648492D02*
X11716317Y-11477064D01*
X11897270Y-11667540D02*
X11878222Y-11677064D01*
X11878222Y-11677064D02*
X11840127Y-11677064D01*
X11840127Y-11677064D02*
X11821079Y-11667540D01*
X11821079Y-11667540D02*
X11811556Y-11648492D01*
X11811556Y-11648492D02*
X11811556Y-11572302D01*
X11811556Y-11572302D02*
X11821079Y-11553254D01*
X11821079Y-11553254D02*
X11840127Y-11543730D01*
X11840127Y-11543730D02*
X11878222Y-11543730D01*
X11878222Y-11543730D02*
X11897270Y-11553254D01*
X11897270Y-11553254D02*
X11906794Y-11572302D01*
X11906794Y-11572302D02*
X11906794Y-11591349D01*
X11906794Y-11591349D02*
X11811556Y-11610397D01*
X11982984Y-11667540D02*
X12002032Y-11677064D01*
X12002032Y-11677064D02*
X12040127Y-11677064D01*
X12040127Y-11677064D02*
X12059175Y-11667540D01*
X12059175Y-11667540D02*
X12068698Y-11648492D01*
X12068698Y-11648492D02*
X12068698Y-11638968D01*
X12068698Y-11638968D02*
X12059175Y-11619921D01*
X12059175Y-11619921D02*
X12040127Y-11610397D01*
X12040127Y-11610397D02*
X12011556Y-11610397D01*
X12011556Y-11610397D02*
X11992508Y-11600873D01*
X11992508Y-11600873D02*
X11982984Y-11581826D01*
X11982984Y-11581826D02*
X11982984Y-11572302D01*
X11982984Y-11572302D02*
X11992508Y-11553254D01*
X11992508Y-11553254D02*
X12011556Y-11543730D01*
X12011556Y-11543730D02*
X12040127Y-11543730D01*
X12040127Y-11543730D02*
X12059175Y-11553254D01*
X12135365Y-11753254D02*
X12144889Y-11743730D01*
X12144889Y-11743730D02*
X12163937Y-11715159D01*
X12163937Y-11715159D02*
X12173460Y-11696111D01*
X12173460Y-11696111D02*
X12182984Y-11667540D01*
X12182984Y-11667540D02*
X12192508Y-11619921D01*
X12192508Y-11619921D02*
X12192508Y-11581826D01*
X12192508Y-11581826D02*
X12182984Y-11534207D01*
X12182984Y-11534207D02*
X12173460Y-11505635D01*
X12173460Y-11505635D02*
X12163937Y-11486588D01*
X12163937Y-11486588D02*
X12144889Y-11458016D01*
X12144889Y-11458016D02*
X12135365Y-11448492D01*
D13*
X7373460Y-11848540D02*
G75*
G03*
X7373460Y-11848540I-38100J0D01*
G01*
D11*
X7659174Y-11741064D02*
X7678222Y-11741064D01*
X7678222Y-11741064D02*
X7697269Y-11750588D01*
X7697269Y-11750588D02*
X7706793Y-11760111D01*
X7706793Y-11760111D02*
X7716317Y-11779159D01*
X7716317Y-11779159D02*
X7725841Y-11817254D01*
X7725841Y-11817254D02*
X7725841Y-11864873D01*
X7725841Y-11864873D02*
X7716317Y-11902968D01*
X7716317Y-11902968D02*
X7706793Y-11922016D01*
X7706793Y-11922016D02*
X7697269Y-11931540D01*
X7697269Y-11931540D02*
X7678222Y-11941064D01*
X7678222Y-11941064D02*
X7659174Y-11941064D01*
X7659174Y-11941064D02*
X7640127Y-11931540D01*
X7640127Y-11931540D02*
X7630603Y-11922016D01*
X7630603Y-11922016D02*
X7621079Y-11902968D01*
X7621079Y-11902968D02*
X7611555Y-11864873D01*
X7611555Y-11864873D02*
X7611555Y-11817254D01*
X7611555Y-11817254D02*
X7621079Y-11779159D01*
X7621079Y-11779159D02*
X7630603Y-11760111D01*
X7630603Y-11760111D02*
X7640127Y-11750588D01*
X7640127Y-11750588D02*
X7659174Y-11741064D01*
X7811555Y-11922016D02*
X7821079Y-11931540D01*
X7821079Y-11931540D02*
X7811555Y-11941064D01*
X7811555Y-11941064D02*
X7802031Y-11931540D01*
X7802031Y-11931540D02*
X7811555Y-11922016D01*
X7811555Y-11922016D02*
X7811555Y-11941064D01*
X7887746Y-11741064D02*
X8021079Y-11741064D01*
X8021079Y-11741064D02*
X7935365Y-11941064D01*
X8182984Y-11741064D02*
X8144888Y-11741064D01*
X8144888Y-11741064D02*
X8125841Y-11750588D01*
X8125841Y-11750588D02*
X8116317Y-11760111D01*
X8116317Y-11760111D02*
X8097269Y-11788683D01*
X8097269Y-11788683D02*
X8087746Y-11826778D01*
X8087746Y-11826778D02*
X8087746Y-11902968D01*
X8087746Y-11902968D02*
X8097269Y-11922016D01*
X8097269Y-11922016D02*
X8106793Y-11931540D01*
X8106793Y-11931540D02*
X8125841Y-11941064D01*
X8125841Y-11941064D02*
X8163936Y-11941064D01*
X8163936Y-11941064D02*
X8182984Y-11931540D01*
X8182984Y-11931540D02*
X8192508Y-11922016D01*
X8192508Y-11922016D02*
X8202031Y-11902968D01*
X8202031Y-11902968D02*
X8202031Y-11855349D01*
X8202031Y-11855349D02*
X8192508Y-11836302D01*
X8192508Y-11836302D02*
X8182984Y-11826778D01*
X8182984Y-11826778D02*
X8163936Y-11817254D01*
X8163936Y-11817254D02*
X8125841Y-11817254D01*
X8125841Y-11817254D02*
X8106793Y-11826778D01*
X8106793Y-11826778D02*
X8097269Y-11836302D01*
X8097269Y-11836302D02*
X8087746Y-11855349D01*
X8278222Y-11760111D02*
X8287746Y-11750588D01*
X8287746Y-11750588D02*
X8306793Y-11741064D01*
X8306793Y-11741064D02*
X8354412Y-11741064D01*
X8354412Y-11741064D02*
X8373460Y-11750588D01*
X8373460Y-11750588D02*
X8382984Y-11760111D01*
X8382984Y-11760111D02*
X8392508Y-11779159D01*
X8392508Y-11779159D02*
X8392508Y-11798207D01*
X8392508Y-11798207D02*
X8382984Y-11826778D01*
X8382984Y-11826778D02*
X8268698Y-11941064D01*
X8268698Y-11941064D02*
X8392508Y-11941064D01*
X8478222Y-11941064D02*
X8478222Y-11807730D01*
X8478222Y-11826778D02*
X8487746Y-11817254D01*
X8487746Y-11817254D02*
X8506793Y-11807730D01*
X8506793Y-11807730D02*
X8535365Y-11807730D01*
X8535365Y-11807730D02*
X8554412Y-11817254D01*
X8554412Y-11817254D02*
X8563936Y-11836302D01*
X8563936Y-11836302D02*
X8563936Y-11941064D01*
X8563936Y-11836302D02*
X8573460Y-11817254D01*
X8573460Y-11817254D02*
X8592508Y-11807730D01*
X8592508Y-11807730D02*
X8621079Y-11807730D01*
X8621079Y-11807730D02*
X8640127Y-11817254D01*
X8640127Y-11817254D02*
X8649651Y-11836302D01*
X8649651Y-11836302D02*
X8649651Y-11941064D01*
X8744889Y-11941064D02*
X8744889Y-11807730D01*
X8744889Y-11826778D02*
X8754412Y-11817254D01*
X8754412Y-11817254D02*
X8773460Y-11807730D01*
X8773460Y-11807730D02*
X8802032Y-11807730D01*
X8802032Y-11807730D02*
X8821079Y-11817254D01*
X8821079Y-11817254D02*
X8830603Y-11836302D01*
X8830603Y-11836302D02*
X8830603Y-11941064D01*
X8830603Y-11836302D02*
X8840127Y-11817254D01*
X8840127Y-11817254D02*
X8859174Y-11807730D01*
X8859174Y-11807730D02*
X8887746Y-11807730D01*
X8887746Y-11807730D02*
X8906793Y-11817254D01*
X8906793Y-11817254D02*
X8916317Y-11836302D01*
X8916317Y-11836302D02*
X8916317Y-11941064D01*
X9306793Y-11731540D02*
X9135365Y-11988683D01*
X9563936Y-11741064D02*
X9582984Y-11741064D01*
X9582984Y-11741064D02*
X9602032Y-11750588D01*
X9602032Y-11750588D02*
X9611555Y-11760111D01*
X9611555Y-11760111D02*
X9621079Y-11779159D01*
X9621079Y-11779159D02*
X9630603Y-11817254D01*
X9630603Y-11817254D02*
X9630603Y-11864873D01*
X9630603Y-11864873D02*
X9621079Y-11902968D01*
X9621079Y-11902968D02*
X9611555Y-11922016D01*
X9611555Y-11922016D02*
X9602032Y-11931540D01*
X9602032Y-11931540D02*
X9582984Y-11941064D01*
X9582984Y-11941064D02*
X9563936Y-11941064D01*
X9563936Y-11941064D02*
X9544889Y-11931540D01*
X9544889Y-11931540D02*
X9535365Y-11922016D01*
X9535365Y-11922016D02*
X9525841Y-11902968D01*
X9525841Y-11902968D02*
X9516317Y-11864873D01*
X9516317Y-11864873D02*
X9516317Y-11817254D01*
X9516317Y-11817254D02*
X9525841Y-11779159D01*
X9525841Y-11779159D02*
X9535365Y-11760111D01*
X9535365Y-11760111D02*
X9544889Y-11750588D01*
X9544889Y-11750588D02*
X9563936Y-11741064D01*
X9716317Y-11922016D02*
X9725841Y-11931540D01*
X9725841Y-11931540D02*
X9716317Y-11941064D01*
X9716317Y-11941064D02*
X9706794Y-11931540D01*
X9706794Y-11931540D02*
X9716317Y-11922016D01*
X9716317Y-11922016D02*
X9716317Y-11941064D01*
X9849651Y-11741064D02*
X9868698Y-11741064D01*
X9868698Y-11741064D02*
X9887746Y-11750588D01*
X9887746Y-11750588D02*
X9897270Y-11760111D01*
X9897270Y-11760111D02*
X9906794Y-11779159D01*
X9906794Y-11779159D02*
X9916317Y-11817254D01*
X9916317Y-11817254D02*
X9916317Y-11864873D01*
X9916317Y-11864873D02*
X9906794Y-11902968D01*
X9906794Y-11902968D02*
X9897270Y-11922016D01*
X9897270Y-11922016D02*
X9887746Y-11931540D01*
X9887746Y-11931540D02*
X9868698Y-11941064D01*
X9868698Y-11941064D02*
X9849651Y-11941064D01*
X9849651Y-11941064D02*
X9830603Y-11931540D01*
X9830603Y-11931540D02*
X9821079Y-11922016D01*
X9821079Y-11922016D02*
X9811555Y-11902968D01*
X9811555Y-11902968D02*
X9802032Y-11864873D01*
X9802032Y-11864873D02*
X9802032Y-11817254D01*
X9802032Y-11817254D02*
X9811555Y-11779159D01*
X9811555Y-11779159D02*
X9821079Y-11760111D01*
X9821079Y-11760111D02*
X9830603Y-11750588D01*
X9830603Y-11750588D02*
X9849651Y-11741064D01*
X9982984Y-11741064D02*
X10106794Y-11741064D01*
X10106794Y-11741064D02*
X10040127Y-11817254D01*
X10040127Y-11817254D02*
X10068698Y-11817254D01*
X10068698Y-11817254D02*
X10087746Y-11826778D01*
X10087746Y-11826778D02*
X10097270Y-11836302D01*
X10097270Y-11836302D02*
X10106794Y-11855349D01*
X10106794Y-11855349D02*
X10106794Y-11902968D01*
X10106794Y-11902968D02*
X10097270Y-11922016D01*
X10097270Y-11922016D02*
X10087746Y-11931540D01*
X10087746Y-11931540D02*
X10068698Y-11941064D01*
X10068698Y-11941064D02*
X10011555Y-11941064D01*
X10011555Y-11941064D02*
X9992508Y-11931540D01*
X9992508Y-11931540D02*
X9982984Y-11922016D01*
X10230603Y-11741064D02*
X10249651Y-11741064D01*
X10249651Y-11741064D02*
X10268698Y-11750588D01*
X10268698Y-11750588D02*
X10278222Y-11760111D01*
X10278222Y-11760111D02*
X10287746Y-11779159D01*
X10287746Y-11779159D02*
X10297270Y-11817254D01*
X10297270Y-11817254D02*
X10297270Y-11864873D01*
X10297270Y-11864873D02*
X10287746Y-11902968D01*
X10287746Y-11902968D02*
X10278222Y-11922016D01*
X10278222Y-11922016D02*
X10268698Y-11931540D01*
X10268698Y-11931540D02*
X10249651Y-11941064D01*
X10249651Y-11941064D02*
X10230603Y-11941064D01*
X10230603Y-11941064D02*
X10211555Y-11931540D01*
X10211555Y-11931540D02*
X10202032Y-11922016D01*
X10202032Y-11922016D02*
X10192508Y-11902968D01*
X10192508Y-11902968D02*
X10182984Y-11864873D01*
X10182984Y-11864873D02*
X10182984Y-11817254D01*
X10182984Y-11817254D02*
X10192508Y-11779159D01*
X10192508Y-11779159D02*
X10202032Y-11760111D01*
X10202032Y-11760111D02*
X10211555Y-11750588D01*
X10211555Y-11750588D02*
X10230603Y-11741064D01*
X10421079Y-11741064D02*
X10440127Y-11741064D01*
X10440127Y-11741064D02*
X10459175Y-11750588D01*
X10459175Y-11750588D02*
X10468698Y-11760111D01*
X10468698Y-11760111D02*
X10478222Y-11779159D01*
X10478222Y-11779159D02*
X10487746Y-11817254D01*
X10487746Y-11817254D02*
X10487746Y-11864873D01*
X10487746Y-11864873D02*
X10478222Y-11902968D01*
X10478222Y-11902968D02*
X10468698Y-11922016D01*
X10468698Y-11922016D02*
X10459175Y-11931540D01*
X10459175Y-11931540D02*
X10440127Y-11941064D01*
X10440127Y-11941064D02*
X10421079Y-11941064D01*
X10421079Y-11941064D02*
X10402032Y-11931540D01*
X10402032Y-11931540D02*
X10392508Y-11922016D01*
X10392508Y-11922016D02*
X10382984Y-11902968D01*
X10382984Y-11902968D02*
X10373460Y-11864873D01*
X10373460Y-11864873D02*
X10373460Y-11817254D01*
X10373460Y-11817254D02*
X10382984Y-11779159D01*
X10382984Y-11779159D02*
X10392508Y-11760111D01*
X10392508Y-11760111D02*
X10402032Y-11750588D01*
X10402032Y-11750588D02*
X10421079Y-11741064D01*
X10563936Y-11741064D02*
X10563936Y-11779159D01*
X10640127Y-11741064D02*
X10640127Y-11779159D01*
X10935365Y-12017254D02*
X10925841Y-12007730D01*
X10925841Y-12007730D02*
X10906794Y-11979159D01*
X10906794Y-11979159D02*
X10897270Y-11960111D01*
X10897270Y-11960111D02*
X10887746Y-11931540D01*
X10887746Y-11931540D02*
X10878222Y-11883921D01*
X10878222Y-11883921D02*
X10878222Y-11845826D01*
X10878222Y-11845826D02*
X10887746Y-11798207D01*
X10887746Y-11798207D02*
X10897270Y-11769635D01*
X10897270Y-11769635D02*
X10906794Y-11750588D01*
X10906794Y-11750588D02*
X10925841Y-11722016D01*
X10925841Y-11722016D02*
X10935365Y-11712492D01*
X11040127Y-11826778D02*
X11021079Y-11817254D01*
X11021079Y-11817254D02*
X11011556Y-11807730D01*
X11011556Y-11807730D02*
X11002032Y-11788683D01*
X11002032Y-11788683D02*
X11002032Y-11779159D01*
X11002032Y-11779159D02*
X11011556Y-11760111D01*
X11011556Y-11760111D02*
X11021079Y-11750588D01*
X11021079Y-11750588D02*
X11040127Y-11741064D01*
X11040127Y-11741064D02*
X11078222Y-11741064D01*
X11078222Y-11741064D02*
X11097270Y-11750588D01*
X11097270Y-11750588D02*
X11106794Y-11760111D01*
X11106794Y-11760111D02*
X11116317Y-11779159D01*
X11116317Y-11779159D02*
X11116317Y-11788683D01*
X11116317Y-11788683D02*
X11106794Y-11807730D01*
X11106794Y-11807730D02*
X11097270Y-11817254D01*
X11097270Y-11817254D02*
X11078222Y-11826778D01*
X11078222Y-11826778D02*
X11040127Y-11826778D01*
X11040127Y-11826778D02*
X11021079Y-11836302D01*
X11021079Y-11836302D02*
X11011556Y-11845826D01*
X11011556Y-11845826D02*
X11002032Y-11864873D01*
X11002032Y-11864873D02*
X11002032Y-11902968D01*
X11002032Y-11902968D02*
X11011556Y-11922016D01*
X11011556Y-11922016D02*
X11021079Y-11931540D01*
X11021079Y-11931540D02*
X11040127Y-11941064D01*
X11040127Y-11941064D02*
X11078222Y-11941064D01*
X11078222Y-11941064D02*
X11097270Y-11931540D01*
X11097270Y-11931540D02*
X11106794Y-11922016D01*
X11106794Y-11922016D02*
X11116317Y-11902968D01*
X11116317Y-11902968D02*
X11116317Y-11864873D01*
X11116317Y-11864873D02*
X11106794Y-11845826D01*
X11106794Y-11845826D02*
X11097270Y-11836302D01*
X11097270Y-11836302D02*
X11078222Y-11826778D01*
X11354413Y-11941064D02*
X11354413Y-11741064D01*
X11440127Y-11941064D02*
X11440127Y-11836302D01*
X11440127Y-11836302D02*
X11430603Y-11817254D01*
X11430603Y-11817254D02*
X11411556Y-11807730D01*
X11411556Y-11807730D02*
X11382984Y-11807730D01*
X11382984Y-11807730D02*
X11363936Y-11817254D01*
X11363936Y-11817254D02*
X11354413Y-11826778D01*
X11563936Y-11941064D02*
X11544889Y-11931540D01*
X11544889Y-11931540D02*
X11535365Y-11922016D01*
X11535365Y-11922016D02*
X11525841Y-11902968D01*
X11525841Y-11902968D02*
X11525841Y-11845826D01*
X11525841Y-11845826D02*
X11535365Y-11826778D01*
X11535365Y-11826778D02*
X11544889Y-11817254D01*
X11544889Y-11817254D02*
X11563936Y-11807730D01*
X11563936Y-11807730D02*
X11592508Y-11807730D01*
X11592508Y-11807730D02*
X11611556Y-11817254D01*
X11611556Y-11817254D02*
X11621079Y-11826778D01*
X11621079Y-11826778D02*
X11630603Y-11845826D01*
X11630603Y-11845826D02*
X11630603Y-11902968D01*
X11630603Y-11902968D02*
X11621079Y-11922016D01*
X11621079Y-11922016D02*
X11611556Y-11931540D01*
X11611556Y-11931540D02*
X11592508Y-11941064D01*
X11592508Y-11941064D02*
X11563936Y-11941064D01*
X11744889Y-11941064D02*
X11725841Y-11931540D01*
X11725841Y-11931540D02*
X11716317Y-11912492D01*
X11716317Y-11912492D02*
X11716317Y-11741064D01*
X11897270Y-11931540D02*
X11878222Y-11941064D01*
X11878222Y-11941064D02*
X11840127Y-11941064D01*
X11840127Y-11941064D02*
X11821079Y-11931540D01*
X11821079Y-11931540D02*
X11811556Y-11912492D01*
X11811556Y-11912492D02*
X11811556Y-11836302D01*
X11811556Y-11836302D02*
X11821079Y-11817254D01*
X11821079Y-11817254D02*
X11840127Y-11807730D01*
X11840127Y-11807730D02*
X11878222Y-11807730D01*
X11878222Y-11807730D02*
X11897270Y-11817254D01*
X11897270Y-11817254D02*
X11906794Y-11836302D01*
X11906794Y-11836302D02*
X11906794Y-11855349D01*
X11906794Y-11855349D02*
X11811556Y-11874397D01*
X11982984Y-11931540D02*
X12002032Y-11941064D01*
X12002032Y-11941064D02*
X12040127Y-11941064D01*
X12040127Y-11941064D02*
X12059175Y-11931540D01*
X12059175Y-11931540D02*
X12068698Y-11912492D01*
X12068698Y-11912492D02*
X12068698Y-11902968D01*
X12068698Y-11902968D02*
X12059175Y-11883921D01*
X12059175Y-11883921D02*
X12040127Y-11874397D01*
X12040127Y-11874397D02*
X12011556Y-11874397D01*
X12011556Y-11874397D02*
X11992508Y-11864873D01*
X11992508Y-11864873D02*
X11982984Y-11845826D01*
X11982984Y-11845826D02*
X11982984Y-11836302D01*
X11982984Y-11836302D02*
X11992508Y-11817254D01*
X11992508Y-11817254D02*
X12011556Y-11807730D01*
X12011556Y-11807730D02*
X12040127Y-11807730D01*
X12040127Y-11807730D02*
X12059175Y-11817254D01*
X12135365Y-12017254D02*
X12144889Y-12007730D01*
X12144889Y-12007730D02*
X12163937Y-11979159D01*
X12163937Y-11979159D02*
X12173460Y-11960111D01*
X12173460Y-11960111D02*
X12182984Y-11931540D01*
X12182984Y-11931540D02*
X12192508Y-11883921D01*
X12192508Y-11883921D02*
X12192508Y-11845826D01*
X12192508Y-11845826D02*
X12182984Y-11798207D01*
X12182984Y-11798207D02*
X12173460Y-11769635D01*
X12173460Y-11769635D02*
X12163937Y-11750588D01*
X12163937Y-11750588D02*
X12144889Y-11722016D01*
X12144889Y-11722016D02*
X12135365Y-11712492D01*
D10*
X7323460Y-12062540D02*
X7323460Y-12162540D01*
X7273460Y-12112540D02*
X7373460Y-12112540D01*
D11*
X7725841Y-12205064D02*
X7611555Y-12205064D01*
X7668698Y-12205064D02*
X7668698Y-12005064D01*
X7668698Y-12005064D02*
X7649650Y-12033635D01*
X7649650Y-12033635D02*
X7630603Y-12052683D01*
X7630603Y-12052683D02*
X7611555Y-12062207D01*
X7811555Y-12186016D02*
X7821079Y-12195540D01*
X7821079Y-12195540D02*
X7811555Y-12205064D01*
X7811555Y-12205064D02*
X7802031Y-12195540D01*
X7802031Y-12195540D02*
X7811555Y-12186016D01*
X7811555Y-12186016D02*
X7811555Y-12205064D01*
X7944888Y-12005064D02*
X7963936Y-12005064D01*
X7963936Y-12005064D02*
X7982984Y-12014588D01*
X7982984Y-12014588D02*
X7992508Y-12024111D01*
X7992508Y-12024111D02*
X8002031Y-12043159D01*
X8002031Y-12043159D02*
X8011555Y-12081254D01*
X8011555Y-12081254D02*
X8011555Y-12128873D01*
X8011555Y-12128873D02*
X8002031Y-12166968D01*
X8002031Y-12166968D02*
X7992508Y-12186016D01*
X7992508Y-12186016D02*
X7982984Y-12195540D01*
X7982984Y-12195540D02*
X7963936Y-12205064D01*
X7963936Y-12205064D02*
X7944888Y-12205064D01*
X7944888Y-12205064D02*
X7925841Y-12195540D01*
X7925841Y-12195540D02*
X7916317Y-12186016D01*
X7916317Y-12186016D02*
X7906793Y-12166968D01*
X7906793Y-12166968D02*
X7897269Y-12128873D01*
X7897269Y-12128873D02*
X7897269Y-12081254D01*
X7897269Y-12081254D02*
X7906793Y-12043159D01*
X7906793Y-12043159D02*
X7916317Y-12024111D01*
X7916317Y-12024111D02*
X7925841Y-12014588D01*
X7925841Y-12014588D02*
X7944888Y-12005064D01*
X8135365Y-12005064D02*
X8154412Y-12005064D01*
X8154412Y-12005064D02*
X8173460Y-12014588D01*
X8173460Y-12014588D02*
X8182984Y-12024111D01*
X8182984Y-12024111D02*
X8192508Y-12043159D01*
X8192508Y-12043159D02*
X8202031Y-12081254D01*
X8202031Y-12081254D02*
X8202031Y-12128873D01*
X8202031Y-12128873D02*
X8192508Y-12166968D01*
X8192508Y-12166968D02*
X8182984Y-12186016D01*
X8182984Y-12186016D02*
X8173460Y-12195540D01*
X8173460Y-12195540D02*
X8154412Y-12205064D01*
X8154412Y-12205064D02*
X8135365Y-12205064D01*
X8135365Y-12205064D02*
X8116317Y-12195540D01*
X8116317Y-12195540D02*
X8106793Y-12186016D01*
X8106793Y-12186016D02*
X8097269Y-12166968D01*
X8097269Y-12166968D02*
X8087746Y-12128873D01*
X8087746Y-12128873D02*
X8087746Y-12081254D01*
X8087746Y-12081254D02*
X8097269Y-12043159D01*
X8097269Y-12043159D02*
X8106793Y-12024111D01*
X8106793Y-12024111D02*
X8116317Y-12014588D01*
X8116317Y-12014588D02*
X8135365Y-12005064D01*
X8325841Y-12005064D02*
X8344889Y-12005064D01*
X8344889Y-12005064D02*
X8363936Y-12014588D01*
X8363936Y-12014588D02*
X8373460Y-12024111D01*
X8373460Y-12024111D02*
X8382984Y-12043159D01*
X8382984Y-12043159D02*
X8392508Y-12081254D01*
X8392508Y-12081254D02*
X8392508Y-12128873D01*
X8392508Y-12128873D02*
X8382984Y-12166968D01*
X8382984Y-12166968D02*
X8373460Y-12186016D01*
X8373460Y-12186016D02*
X8363936Y-12195540D01*
X8363936Y-12195540D02*
X8344889Y-12205064D01*
X8344889Y-12205064D02*
X8325841Y-12205064D01*
X8325841Y-12205064D02*
X8306793Y-12195540D01*
X8306793Y-12195540D02*
X8297269Y-12186016D01*
X8297269Y-12186016D02*
X8287746Y-12166968D01*
X8287746Y-12166968D02*
X8278222Y-12128873D01*
X8278222Y-12128873D02*
X8278222Y-12081254D01*
X8278222Y-12081254D02*
X8287746Y-12043159D01*
X8287746Y-12043159D02*
X8297269Y-12024111D01*
X8297269Y-12024111D02*
X8306793Y-12014588D01*
X8306793Y-12014588D02*
X8325841Y-12005064D01*
X8478222Y-12205064D02*
X8478222Y-12071730D01*
X8478222Y-12090778D02*
X8487746Y-12081254D01*
X8487746Y-12081254D02*
X8506793Y-12071730D01*
X8506793Y-12071730D02*
X8535365Y-12071730D01*
X8535365Y-12071730D02*
X8554412Y-12081254D01*
X8554412Y-12081254D02*
X8563936Y-12100302D01*
X8563936Y-12100302D02*
X8563936Y-12205064D01*
X8563936Y-12100302D02*
X8573460Y-12081254D01*
X8573460Y-12081254D02*
X8592508Y-12071730D01*
X8592508Y-12071730D02*
X8621079Y-12071730D01*
X8621079Y-12071730D02*
X8640127Y-12081254D01*
X8640127Y-12081254D02*
X8649651Y-12100302D01*
X8649651Y-12100302D02*
X8649651Y-12205064D01*
X8744889Y-12205064D02*
X8744889Y-12071730D01*
X8744889Y-12090778D02*
X8754412Y-12081254D01*
X8754412Y-12081254D02*
X8773460Y-12071730D01*
X8773460Y-12071730D02*
X8802032Y-12071730D01*
X8802032Y-12071730D02*
X8821079Y-12081254D01*
X8821079Y-12081254D02*
X8830603Y-12100302D01*
X8830603Y-12100302D02*
X8830603Y-12205064D01*
X8830603Y-12100302D02*
X8840127Y-12081254D01*
X8840127Y-12081254D02*
X8859174Y-12071730D01*
X8859174Y-12071730D02*
X8887746Y-12071730D01*
X8887746Y-12071730D02*
X8906793Y-12081254D01*
X8906793Y-12081254D02*
X8916317Y-12100302D01*
X8916317Y-12100302D02*
X8916317Y-12205064D01*
X9306793Y-11995540D02*
X9135365Y-12252683D01*
X9563936Y-12005064D02*
X9582984Y-12005064D01*
X9582984Y-12005064D02*
X9602032Y-12014588D01*
X9602032Y-12014588D02*
X9611555Y-12024111D01*
X9611555Y-12024111D02*
X9621079Y-12043159D01*
X9621079Y-12043159D02*
X9630603Y-12081254D01*
X9630603Y-12081254D02*
X9630603Y-12128873D01*
X9630603Y-12128873D02*
X9621079Y-12166968D01*
X9621079Y-12166968D02*
X9611555Y-12186016D01*
X9611555Y-12186016D02*
X9602032Y-12195540D01*
X9602032Y-12195540D02*
X9582984Y-12205064D01*
X9582984Y-12205064D02*
X9563936Y-12205064D01*
X9563936Y-12205064D02*
X9544889Y-12195540D01*
X9544889Y-12195540D02*
X9535365Y-12186016D01*
X9535365Y-12186016D02*
X9525841Y-12166968D01*
X9525841Y-12166968D02*
X9516317Y-12128873D01*
X9516317Y-12128873D02*
X9516317Y-12081254D01*
X9516317Y-12081254D02*
X9525841Y-12043159D01*
X9525841Y-12043159D02*
X9535365Y-12024111D01*
X9535365Y-12024111D02*
X9544889Y-12014588D01*
X9544889Y-12014588D02*
X9563936Y-12005064D01*
X9716317Y-12186016D02*
X9725841Y-12195540D01*
X9725841Y-12195540D02*
X9716317Y-12205064D01*
X9716317Y-12205064D02*
X9706794Y-12195540D01*
X9706794Y-12195540D02*
X9716317Y-12186016D01*
X9716317Y-12186016D02*
X9716317Y-12205064D01*
X9849651Y-12005064D02*
X9868698Y-12005064D01*
X9868698Y-12005064D02*
X9887746Y-12014588D01*
X9887746Y-12014588D02*
X9897270Y-12024111D01*
X9897270Y-12024111D02*
X9906794Y-12043159D01*
X9906794Y-12043159D02*
X9916317Y-12081254D01*
X9916317Y-12081254D02*
X9916317Y-12128873D01*
X9916317Y-12128873D02*
X9906794Y-12166968D01*
X9906794Y-12166968D02*
X9897270Y-12186016D01*
X9897270Y-12186016D02*
X9887746Y-12195540D01*
X9887746Y-12195540D02*
X9868698Y-12205064D01*
X9868698Y-12205064D02*
X9849651Y-12205064D01*
X9849651Y-12205064D02*
X9830603Y-12195540D01*
X9830603Y-12195540D02*
X9821079Y-12186016D01*
X9821079Y-12186016D02*
X9811555Y-12166968D01*
X9811555Y-12166968D02*
X9802032Y-12128873D01*
X9802032Y-12128873D02*
X9802032Y-12081254D01*
X9802032Y-12081254D02*
X9811555Y-12043159D01*
X9811555Y-12043159D02*
X9821079Y-12024111D01*
X9821079Y-12024111D02*
X9830603Y-12014588D01*
X9830603Y-12014588D02*
X9849651Y-12005064D01*
X9982984Y-12005064D02*
X10106794Y-12005064D01*
X10106794Y-12005064D02*
X10040127Y-12081254D01*
X10040127Y-12081254D02*
X10068698Y-12081254D01*
X10068698Y-12081254D02*
X10087746Y-12090778D01*
X10087746Y-12090778D02*
X10097270Y-12100302D01*
X10097270Y-12100302D02*
X10106794Y-12119349D01*
X10106794Y-12119349D02*
X10106794Y-12166968D01*
X10106794Y-12166968D02*
X10097270Y-12186016D01*
X10097270Y-12186016D02*
X10087746Y-12195540D01*
X10087746Y-12195540D02*
X10068698Y-12205064D01*
X10068698Y-12205064D02*
X10011555Y-12205064D01*
X10011555Y-12205064D02*
X9992508Y-12195540D01*
X9992508Y-12195540D02*
X9982984Y-12186016D01*
X10202032Y-12205064D02*
X10240127Y-12205064D01*
X10240127Y-12205064D02*
X10259175Y-12195540D01*
X10259175Y-12195540D02*
X10268698Y-12186016D01*
X10268698Y-12186016D02*
X10287746Y-12157445D01*
X10287746Y-12157445D02*
X10297270Y-12119349D01*
X10297270Y-12119349D02*
X10297270Y-12043159D01*
X10297270Y-12043159D02*
X10287746Y-12024111D01*
X10287746Y-12024111D02*
X10278222Y-12014588D01*
X10278222Y-12014588D02*
X10259175Y-12005064D01*
X10259175Y-12005064D02*
X10221079Y-12005064D01*
X10221079Y-12005064D02*
X10202032Y-12014588D01*
X10202032Y-12014588D02*
X10192508Y-12024111D01*
X10192508Y-12024111D02*
X10182984Y-12043159D01*
X10182984Y-12043159D02*
X10182984Y-12090778D01*
X10182984Y-12090778D02*
X10192508Y-12109826D01*
X10192508Y-12109826D02*
X10202032Y-12119349D01*
X10202032Y-12119349D02*
X10221079Y-12128873D01*
X10221079Y-12128873D02*
X10259175Y-12128873D01*
X10259175Y-12128873D02*
X10278222Y-12119349D01*
X10278222Y-12119349D02*
X10287746Y-12109826D01*
X10287746Y-12109826D02*
X10297270Y-12090778D01*
X10468698Y-12071730D02*
X10468698Y-12205064D01*
X10421079Y-11995540D02*
X10373460Y-12138397D01*
X10373460Y-12138397D02*
X10497270Y-12138397D01*
X10563936Y-12005064D02*
X10563936Y-12043159D01*
X10640127Y-12005064D02*
X10640127Y-12043159D01*
X10935365Y-12281254D02*
X10925841Y-12271730D01*
X10925841Y-12271730D02*
X10906794Y-12243159D01*
X10906794Y-12243159D02*
X10897270Y-12224111D01*
X10897270Y-12224111D02*
X10887746Y-12195540D01*
X10887746Y-12195540D02*
X10878222Y-12147921D01*
X10878222Y-12147921D02*
X10878222Y-12109826D01*
X10878222Y-12109826D02*
X10887746Y-12062207D01*
X10887746Y-12062207D02*
X10897270Y-12033635D01*
X10897270Y-12033635D02*
X10906794Y-12014588D01*
X10906794Y-12014588D02*
X10925841Y-11986016D01*
X10925841Y-11986016D02*
X10935365Y-11976492D01*
X11040127Y-12090778D02*
X11021079Y-12081254D01*
X11021079Y-12081254D02*
X11011556Y-12071730D01*
X11011556Y-12071730D02*
X11002032Y-12052683D01*
X11002032Y-12052683D02*
X11002032Y-12043159D01*
X11002032Y-12043159D02*
X11011556Y-12024111D01*
X11011556Y-12024111D02*
X11021079Y-12014588D01*
X11021079Y-12014588D02*
X11040127Y-12005064D01*
X11040127Y-12005064D02*
X11078222Y-12005064D01*
X11078222Y-12005064D02*
X11097270Y-12014588D01*
X11097270Y-12014588D02*
X11106794Y-12024111D01*
X11106794Y-12024111D02*
X11116317Y-12043159D01*
X11116317Y-12043159D02*
X11116317Y-12052683D01*
X11116317Y-12052683D02*
X11106794Y-12071730D01*
X11106794Y-12071730D02*
X11097270Y-12081254D01*
X11097270Y-12081254D02*
X11078222Y-12090778D01*
X11078222Y-12090778D02*
X11040127Y-12090778D01*
X11040127Y-12090778D02*
X11021079Y-12100302D01*
X11021079Y-12100302D02*
X11011556Y-12109826D01*
X11011556Y-12109826D02*
X11002032Y-12128873D01*
X11002032Y-12128873D02*
X11002032Y-12166968D01*
X11002032Y-12166968D02*
X11011556Y-12186016D01*
X11011556Y-12186016D02*
X11021079Y-12195540D01*
X11021079Y-12195540D02*
X11040127Y-12205064D01*
X11040127Y-12205064D02*
X11078222Y-12205064D01*
X11078222Y-12205064D02*
X11097270Y-12195540D01*
X11097270Y-12195540D02*
X11106794Y-12186016D01*
X11106794Y-12186016D02*
X11116317Y-12166968D01*
X11116317Y-12166968D02*
X11116317Y-12128873D01*
X11116317Y-12128873D02*
X11106794Y-12109826D01*
X11106794Y-12109826D02*
X11097270Y-12100302D01*
X11097270Y-12100302D02*
X11078222Y-12090778D01*
X11354413Y-12205064D02*
X11354413Y-12005064D01*
X11440127Y-12205064D02*
X11440127Y-12100302D01*
X11440127Y-12100302D02*
X11430603Y-12081254D01*
X11430603Y-12081254D02*
X11411556Y-12071730D01*
X11411556Y-12071730D02*
X11382984Y-12071730D01*
X11382984Y-12071730D02*
X11363936Y-12081254D01*
X11363936Y-12081254D02*
X11354413Y-12090778D01*
X11563936Y-12205064D02*
X11544889Y-12195540D01*
X11544889Y-12195540D02*
X11535365Y-12186016D01*
X11535365Y-12186016D02*
X11525841Y-12166968D01*
X11525841Y-12166968D02*
X11525841Y-12109826D01*
X11525841Y-12109826D02*
X11535365Y-12090778D01*
X11535365Y-12090778D02*
X11544889Y-12081254D01*
X11544889Y-12081254D02*
X11563936Y-12071730D01*
X11563936Y-12071730D02*
X11592508Y-12071730D01*
X11592508Y-12071730D02*
X11611556Y-12081254D01*
X11611556Y-12081254D02*
X11621079Y-12090778D01*
X11621079Y-12090778D02*
X11630603Y-12109826D01*
X11630603Y-12109826D02*
X11630603Y-12166968D01*
X11630603Y-12166968D02*
X11621079Y-12186016D01*
X11621079Y-12186016D02*
X11611556Y-12195540D01*
X11611556Y-12195540D02*
X11592508Y-12205064D01*
X11592508Y-12205064D02*
X11563936Y-12205064D01*
X11744889Y-12205064D02*
X11725841Y-12195540D01*
X11725841Y-12195540D02*
X11716317Y-12176492D01*
X11716317Y-12176492D02*
X11716317Y-12005064D01*
X11897270Y-12195540D02*
X11878222Y-12205064D01*
X11878222Y-12205064D02*
X11840127Y-12205064D01*
X11840127Y-12205064D02*
X11821079Y-12195540D01*
X11821079Y-12195540D02*
X11811556Y-12176492D01*
X11811556Y-12176492D02*
X11811556Y-12100302D01*
X11811556Y-12100302D02*
X11821079Y-12081254D01*
X11821079Y-12081254D02*
X11840127Y-12071730D01*
X11840127Y-12071730D02*
X11878222Y-12071730D01*
X11878222Y-12071730D02*
X11897270Y-12081254D01*
X11897270Y-12081254D02*
X11906794Y-12100302D01*
X11906794Y-12100302D02*
X11906794Y-12119349D01*
X11906794Y-12119349D02*
X11811556Y-12138397D01*
X11982984Y-12195540D02*
X12002032Y-12205064D01*
X12002032Y-12205064D02*
X12040127Y-12205064D01*
X12040127Y-12205064D02*
X12059175Y-12195540D01*
X12059175Y-12195540D02*
X12068698Y-12176492D01*
X12068698Y-12176492D02*
X12068698Y-12166968D01*
X12068698Y-12166968D02*
X12059175Y-12147921D01*
X12059175Y-12147921D02*
X12040127Y-12138397D01*
X12040127Y-12138397D02*
X12011556Y-12138397D01*
X12011556Y-12138397D02*
X11992508Y-12128873D01*
X11992508Y-12128873D02*
X11982984Y-12109826D01*
X11982984Y-12109826D02*
X11982984Y-12100302D01*
X11982984Y-12100302D02*
X11992508Y-12081254D01*
X11992508Y-12081254D02*
X12011556Y-12071730D01*
X12011556Y-12071730D02*
X12040127Y-12071730D01*
X12040127Y-12071730D02*
X12059175Y-12081254D01*
X12135365Y-12281254D02*
X12144889Y-12271730D01*
X12144889Y-12271730D02*
X12163937Y-12243159D01*
X12163937Y-12243159D02*
X12173460Y-12224111D01*
X12173460Y-12224111D02*
X12182984Y-12195540D01*
X12182984Y-12195540D02*
X12192508Y-12147921D01*
X12192508Y-12147921D02*
X12192508Y-12109826D01*
X12192508Y-12109826D02*
X12182984Y-12062207D01*
X12182984Y-12062207D02*
X12173460Y-12033635D01*
X12173460Y-12033635D02*
X12163937Y-12014588D01*
X12163937Y-12014588D02*
X12144889Y-11986016D01*
X12144889Y-11986016D02*
X12135365Y-11976492D01*
M02*
