M48
; DRILL file {KiCad 7.0.1} date Fri Sep 22 10:38:30 2023
; FORMAT={-:-/ absolute / inch / decimal}
; #@! TF.CreationDate,2023-09-22T10:38:30-04:00
; #@! TF.GenerationSoftware,Kicad,Pcbnew,7.0.1
; #@! TF.FileFunction,Plated,1,2,PTH
FMAT,2
INCH
; #@! TA.AperFunction,Plated,PTH,ViaDrill
T1C0.0157
; #@! TA.AperFunction,Plated,PTH,ComponentDrill
T2C0.0300
; #@! TA.AperFunction,Plated,PTH,ComponentDrill
T3C0.0394
%
G90
G05
T1
X3.2929Y-3.4
X3.4578Y-3.3308
X3.4719Y-3.5889
X3.4849Y-3.4729
X3.4989Y-3.6979
X3.6799Y-3.6029
X3.7259Y-3.7019
X3.8115Y-3.7215
X3.8859Y-3.7519
T2
X2.9846Y-3.4
X2.9846Y-3.5
X2.9846Y-3.6
X2.9846Y-3.7
X3.9379Y-3.4159
X3.9379Y-3.5159
X3.9379Y-3.6159
X3.9379Y-3.7159
T3
X2.9059Y-3.4
X2.9059Y-3.5
X2.9059Y-3.6
X2.9059Y-3.7
X4.0166Y-3.4159
X4.0166Y-3.5159
X4.0166Y-3.6159
X4.0166Y-3.7159
T0
M30
